<svg version="1.1" id="Layer_1" xmlns="http://www.w3.org/2000/svg" xmlns:xlink="http://www.w3.org/1999/xlink" x="0px" y="0px"
	 width="841.89px" height="595.28px" viewBox="0 0 841.89 595.28" enable-background="new 0 0 841.89 595.28" xml:space="preserve">
  <defs>
    <style>
    *{
        stroke-dasharray: 2220;
        transition: 1s;
        animation: strokeDraw 42s forwards;
      }

      html{
        background: black;
      }

      @keyframes strokeDraw {
        100% {
          stroke-dashoffset: 10020;
        }
      }
    </style>
  </defs>
<g>
	<path fill="none" stroke="#9B9B9B" stroke-linecap="round" stroke-linejoin="round" d="M288.193,126.206l3.313-0.627l-3.313,1.46
		l3.313-0.73l-3.727,1.385l4.079-0.399l-4.079,1.306l4.079-0.554l-4.281,1.36l4.583-0.554l-4.583,1.36l4.583-0.705l-4.583,1.561
		l4.982-0.806l-4.982,1.662l5.444-0.957l-5.444,1.763l5.641-1.209l-5.641,2.166l5.942-1.46l-5.942,2.267l6.295-1.662l-6.043,2.316
		l6.345-1.46l-6.194,2.207l6.698-1.703c0,0-7.197,2.917-6.897,2.869s7.404-2.013,7.404-2.013s-6.298,1.97-6.601,3.15
		c0.403,0.425,3.576-1.438,3.576-1.438l-3.223,2.467l2.82-1.309l-2.317,2.115l2.619-1.081l-2.125,1.907l2.075-1.079l-1.662,1.717
		l1.863-0.912l-1.354,1.511l1.703-0.856l-1.178,1.36l1.433-0.755l-0.856,1.259l1.062-0.554l-0.461,1.209l0.91-0.655l-0.448,1.208
		l1.002-0.554l-0.454,1.007l0.957-0.554l-0.101,0.957l0.759-0.302v0.806l0.651-0.403v0.806l0.705-0.453v0.806l0.604-0.353v0.806
		l0.655-0.705v0.926l0.655-0.674v1.058l0.405-0.856l0.35,0.856l0.437-0.705v1.007l0.438-0.686l0.333,0.836l0.354-0.836l0.403,1.189
		l0.403-1.189l0.36,1.441l0.395-1.441l0.325,1.441l0.279-1.441l0.252,1.441l0.353-1.441v1.642l0.554-1.41l0.302,1.41l0.453-1.642
		l0.302,1.642l0.353-1.642l0.353,1.844l0.283-2.099l0.472,2.099v-2.217l0.657,1.915v-2.125l0.652,1.873v-2.139l0.957,2.189
		l-0.383-2.481l1.312,2.582l-0.7-2.956l1.383,2.452l-0.881-2.815l1.801,2.563l-1.222-3.07l2.015,3.119l-1.449-3.722l2.354,2.987
		l-1.768-3.822l2.761,3.822l-2.404-4.753l2.971,4.029l-3.26-5.373l4.116,5.02l-4.576-6.086l5.332,5.734l-5.792-6.721l6.547,6.167
		l-7.345-7.351l8.23,7.238l-7.593-7.56l8.28,7.065l-7.595-7.451l8.254,6.93l-7.56-7.368l8.13,6.876l-7.333-7.442l7.883,6.927
		l-7.12-7.533l7.466,6.849l-6.747-7.483l7.33,6.682l-6.7-7.305l7.363,6.666l-7.003-7.071l7.614,6.558l-8.072-7.364l8.563,6.587
		l-9.369-7.041l9.822,6.226l-10.729-6.628l11.087,5.892l-11.742-6.496l12.146,5.538l-12.889-6.142l13.23,5.168l-14.251-5.773
		l14.547,4.745l-15.252-5.651l15.474,4.676l-16.34-5.597l16.507,4.652l-16.508-5.647l16.625,4.741l-16.233-5.644l10.764,2.746
		l-9.919-3.588l1.644-0.448l5.692,2.346l2.956,2.095l5.097,1.783l-4.306-2.644l4.306,1.436l-3.461-2.166l3.461,1.007l-2.815-1.86
		l2.815,0.651l-2.464-1.57c0,0-1.538,2.362-2.75,3.473c0.101-1.111-8.281-6.968-10.906-3.434s4.746,6.867,5.655,7.372
		c-0.303,0.404-4.847,5.453-10.805,5.164c-10.906-0.188-12.411-14.071-12.411-14.071l-3.977,0.538
		c-4.977,23.44,17.903,23.82,17.903,23.82s21.506-1.211,19.79-21.812"/>
	<path fill="none" stroke="#9B9B9B" stroke-linecap="round" stroke-linejoin="round" d="M311.344,143.28
		c0,0-2.823,5.453-11.257,3.333s-7.929-9.21-7.323-9.553s2.726-1.951,4.51-0.691s7.048,4.58,11.636,1.735
		C312.051,139.14,311.344,143.28,311.344,143.28z"/>
	<path fill="none" stroke="#000000" stroke-linecap="round" stroke-linejoin="round" d="M320.737,120.494"/>
	<g>
		<path fill="none" stroke="#FFFFFF" stroke-linecap="round" stroke-linejoin="round" d="M283.118,126.206
			c0,0-16.958,12.265-7.017,19.093c0,0,9.593,6.867,11.613,8.079s3,2.426,3,2.426"/>
		<path fill="none" stroke="#FFFFFF" stroke-linecap="round" stroke-linejoin="round" d="M302.659,158.985
			c0,0-3.534,3.178-3.837,3.986c-0.101-0.606-1.01-2.121-0.404-3.13"/>
		<path fill="none" stroke="#FFFFFF" stroke-linecap="round" stroke-linejoin="round" d="M295.187,158.985
			c0,0-4.342,5.299-5.251,5.602c0.101-1.414,2.454-4.75,1.616-6.766"/>
		<g>
			<path fill="none" stroke="#FFFFFF" stroke-linecap="round" stroke-linejoin="round" d="M317.907,158.125
				c-25.75,5.655-69.574-18.279-73.517-21.913c80.479-44.431,111.99,10.603,111.384,12.118c-1.313,1.01-16.359,0-16.359,0
				s17.37,1.414,11.715-3.837s-24.945-35.748-96.236-10.502c-1.412,0.808-5.35,2.02-5.35,2.02
				C250.554,136.918,290.942,163.78,317.907,158.125z"/>
			<path fill="none" stroke="#FFFFFF" stroke-linecap="round" stroke-linejoin="round" d="M285.189,155.804
				c0,0-6.16,8.277-7.372,8.176c1.111-1.818,5.076-6.592,4.027-9.088"/>
			<path fill="none" stroke="#FFFFFF" stroke-linecap="round" stroke-linejoin="round" d="M278.628,153.783
				c0,0-6.059,9.085-8.281,9.188c0.606-1.715,7.194-7.073,5.554-10.197"/>
			<path fill="none" stroke="#FFFFFF" stroke-linecap="round" stroke-linejoin="round" d="M351.468,147.441
				c0,0,2.676,1.014,3.33,0.455s-1.373-1.678-1.665-1.585s0.064-1.584,0.064-1.584l-1.009-0.373l0.279-0.653h-1l0.891-1.203h-1.756
				v-1l-0.466,0.525l-0.466-0.525v-0.873h-0.746v-1.119l-0.652,0.466v-1.491l-0.746,0.932v-1.585l-0.746,0.56v-1.328l-0.653,0.489
				v-1.119l-0.932,0.63v-1.166h-0.746v-0.769l-0.56,0.769v-1.421l-0.559,0.746v-1.531l-0.839,1.158v-1.158h-0.746v-0.8l-0.839,0.8
				v-1.825l-1.212,1.305l0.289-2.568l-1.873,2.3l0.918-2.968l-2.16,2.201l0.777-3.121l-2.068,2.375l0.928-3.094l-2.054,2.486
				l1.08-3.072l-2.004,2.6l0.889-3.242l-1.968,2.719l1.012-3.244l-1.69,2.339v-3.216l-0.746,2.47l-0.325-2.99l-0.887,2.804v-3.216
				l-1.025,2.75v-3.206l-1.212,2.833v-3.344l-1.212,3.064v-3.543l-0.788,2.922v-3.22l-1.263,3.22v-3.669l-2.126,3.635l1.036-4
				l-1.8,3.257l0.614-3.629c0,0-1.644,4.448-1.688,3.945s0.788-4.21,0.788-4.21l-2.044,3.346l0.65-3.729l-1.769,3.345l0.672-3.623
				l-1.697,3.25l0.356-3.562l-1.568,3.842l0.443-4.082l-1.748,3.989l0.457-4.238l-1.482,3.958v-4.213l-0.746,4.027l-0.581-4.227
				l-0.667,4.227l-0.43-4.926l-0.945,5.392v-4.949l-1.106,4.297v-4.74l-1.133,5.269v-5.269l-1.018,5.233l-0.454-5.104l-0.474,5.081
				l-1.024-5.211v5.198l-0.932-5.198v4.833l-1.238-4.833v4.833l-1.187-4.83v5.231l-1.038-5.234v4.833l-1.292-4.833v5.328
				l-1.397-5.218v5.3l-1.307-5.409v5.112l-1.252-4.832v5.326l-1.178-5.221v5.332l-1.045-5.225v5.333l-1.165-5.2v4.766l-1.086-4.627
				v5.198l-1.171-5.034v5.034l-1.183-4.853v4.853l-1.282-4.64v4.64l-1.056-4.451v4.812l-0.833-4.655l-0.331,5.306l-0.899-5.06
				l-0.386,4.783l-0.918-4.505l-0.387,4.598l-0.765-4.338l-0.82,4.836l-0.466-4.04l-0.652,4.04l-0.937-3.761l-0.419,4.761
				l-0.392-4.481l-0.426,4.664l-1.137-4.291v4.195l-0.698-3.729l-0.466,3.542l-0.602-3.356v3.45l-0.985-3.663v4.129l-1.493-3.657
				v4.03l-1.301-3.159v4.163l-1.119-4.163v4.467l-1.353-4.053v4.431l-1.537-3.52l0.5,3.816l-1.837-3.664l0.679,4.002l-2.2-3.409
				l0.955,3.781l-2-3.362l0.703,3.759l-2.324-3.091l1.231,3.433l-2.349-2.959l1.307,3.292l-2.264-2.878l1.255,3.204l-2.616-2.603
				l1.273,3.046l-2.306-2.58l0.743,3.106l-1.941-2.553l0.807,2.944l-1.971-2.397l0.549,2.895l-1.718-2.334l0.573,2.873l-1.849-2.249
				l0.712,2.692l-1.756-2.171v2.23l-0.894-1.778v2.625l-1.151-2.033l0.733,2.165l-1.919-1.544l1.456,1.871l-2.266-1.44l3.004,1.32
				l-3.908-0.323l4.415,0.674l-4.415,0.049l4.568,0.443l-2.983,0.582l3.742-0.467l-2.157,1.399l2.821-0.97l-1.516,1.348l2.341-0.822
				l-1.409,1.562l2.051-0.741l-1.119,1.393l2.228-1.128l-1.295,1.789l2.182-1.251l-1.156,1.744l1.771-0.493l-0.56,0.493l1.678-0.493
				l-0.933,1.391l1.771-0.898l-1.186,1.923l2.04-1.658l-0.667,1.752l1.492-1.284l-0.56,1.657l1.316-1.231l-0.478,1.604l1.292-1.153
				l-0.813,2.085l1.573-0.932l-0.28,0.839l1.897-0.702l-0.965,1.262l1.919-0.757l-0.708,1.13l1.633-0.646l-0.421,1.206l1.124-0.844
				l0.182,1.355l0.895-0.808l-0.242,0.808h1.212l-0.56,0.962l1.565-0.789l-0.073,0.789l1.224-0.231l-0.385,1.405l1.718-0.773
				l-0.327,1.546l1.623-0.773v0.773h1.088l0.423,0.869c0,0,4.664,1.445,6.568,1.894"/>
			<path fill="none" stroke="#FFFFFF" stroke-linecap="round" stroke-linejoin="round" d="M292.561,126.206
				c0,0,15.032-2.593,25.347-0.619c1.474,0.282,2.851,0.657,4.075,1.146c-0.28,0.28-1.22,1.286-1.865,1.678l0.619-1.783
				l-1.365,0.944v-1.367l-0.653,0.423l-0.932-0.423h-1.492c0,0-7.01-2.548-23.735,0.901c0.452,2.729,2.886,6.673,6.115,9.229
				c0,0,7.645,5.608,15.196-2.649c-1.585-0.707-8.109-3.13-5.407-7.885c-1.305,0.373-13.701,1.172-14.543,2.144
				c0.373,1.212,5.353,10.19,11.374,9.113c3.449-0.63,6.887-2.699,7.551-3.373c-1.398-0.333-7.234-1.266-5.575-6.859
				c-1.883,0.466-12.085,1.305-12.085,1.305s3.531,6.385,7.473,7.761c4.151,0.8,7.201-1.222,8.753-2.207
				c-2.388-0.707-6.395-0.767-5.557-5.647c-2.051,0.187-9.509,0.652-9.509,0.652s4.044,6.338,7.924,6.526
				c2.89-0.373,5.034-1.531,5.034-1.531c-1.492-0.24-5.499-0.246-4.475-4.902c-1.678,0.373-6.618,0.653-6.618,0.653
				s2.516,3.744,5.033,4.249s3.542,0,3.542,0s-3.641-0.189-3.077-3.783c-1.119,0.279-3.292,0.279-3.292,0.279
				s2.022,2.194,3.105,2.424c-0.653-0.932-0.865-1.678-0.865-1.678"/>
			<path fill="none" stroke="#FFFFFF" stroke-linecap="round" stroke-linejoin="round" d="M288.193,153.678
				c0,0-14.316-5.488-16.274-12.673c-1.771-5.413,5.925-12.125,8.137-13.71c-4.315,1.398-27.055,8.72-28.926,9.043
				c0,0,31.708,17.899,37.063,18.086c-4.248-1.771-15.435-6.554-17.02-12.926s5.5-12.338,5.966-12.618
				c-2.517,1.305-24.052,7.458-24.052,7.458s22.07,12.624,24.73,13.518c-3.195-1.958-13.999-7.831-3.33-19.67
				c-3.688,2.144-19.163,6.246-19.163,6.246s14.882,8.694,16.594,9.602c0,0-6.711-5.059-0.373-13.797
				c-1.678,0.746-14.264,4.289-14.264,4.289l11.747,6.899c0,0-2.848-4.458,0.632-9.736c-2.124,1.066-10.328,3.373-10.328,3.373
				l8.204,4.438c0,0-1.871-3.301,0.28-6.372c-1.958,1.398-6.339,1.934-6.339,1.934l4.475,2.542l0.187-2.542h-2.424l1.492,1.138
				l0.187-0.741"/>
			<path fill="none" stroke="#FFFFFF" stroke-linecap="round" stroke-linejoin="round" d="M292.466,157.405l-1.607,4.605
				c0,0,4.255-2.577,4.328-3.58c-0.986,0.093-2.164-0.61-2.164-0.61l-0.557,1.888l1.082-0.723"/>
			<polyline fill="none" stroke="#FFFFFF" stroke-linecap="round" stroke-linejoin="round" points="299.328,158.985 
				298.862,160.978 300.435,158.985 			"/>
			<path fill="none" stroke="#FFFFFF" stroke-linecap="round" stroke-linejoin="round" d="M282.827,154.892
				c0,0-0.008,3.54-1.323,4.544c1.603-1.845,2.628-3.632,2.628-3.632L282.827,154.892z"/>
			<path fill="none" stroke="#FFFFFF" stroke-linecap="round" stroke-linejoin="round" d="M276.991,152.773
				c0,0,0.384,3.643-2.13,4.391c2.13-2.641,2.957-4.391,2.957-4.391H276.991z"/>
			<path fill="none" stroke="#FFFFFF" stroke-linecap="round" stroke-linejoin="round" d="M321.308,120.884l-5.007-1.235h3.446
				l-2.731-0.731l1.789-0.439l-1.854-1.756l-0.456,1.982l0.911-0.746l-2.536,1.365l0.975,0.39l-9.519-1.365l8.869,0.455
				l-9.949-0.585l8.843-0.325l-9.819,0.195l9.16-1.122l-10.005,1.382l8.941-2.133l-9.852,2.068l8.896-2.762l-9.473,2.681
				l8.381-3.498l-6.309,1.952l5.292-2.733l-5.226,2.018l4.289-2.76l-3.899,1.72l2.805-2.146l-2.805,1.041l1.86-1.625l-2.056,0.455
				l1.366-1.17h-1.496l0.962-1.149l-0.477-0.53l-1.265,6.946l-11.705,2.195l9.819-0.634l0.975-0.976l-2.364,0.26l3.21-2.238
				l-6.633,2.238l-5.007,0.845l11.64-3.967l-11.64,3.122l11.509-3.836l-11.509,3.056l11.489-4.148l-11.489,3.498l11.059-4.444
				l-11.059,3.637l10.282-4.395l-10.282,3.446l9.884-4.227l-0.585-1.755l-0.26,1.365l-4.901,1.808l-0.496-4.343l2.861,2.731
				l-1.886,0.845l-0.26-2.146l1.171,1.105l-5.788,4.292l4.227-2.146l-5.332,1.365l4.165-2.337l-4.685,1.622l3.316-1.951
				l-4.357,1.301l3.736-1.886l-3.736,0.845l2.708-1.782l-3.245,1.067l2.289-1.735l-2.289,0.825l0.993-1.17l-1.496,0.455l0.845-1.3
				l-1.458,0.325l0.678-0.78l-0.678-0.975l3.636,8.973l0.293-1.43l0.39,5.852c0,0-14.435,1.49-24.318,5.687
				c0,0,6.465-4.957,23.929-6.402c-2.146-0.13-11.196-1.042-23.929,5.787c0.167-0.31,1.435-1.431,3.689-2.666
				c0.789-0.432,1.698-0.878,2.723-1.309c0.046-0.02,0.092-0.039,0.138-0.058c4.036-1.672,9.828-3.084,17.084-2.47
				c-0.227-0.78,0-1.041,0-1.041l-0.323-1.384l-0.293-1.256l-0.162-0.692l-11.673-6.421l11.444,7.283l-11.444-6.243l11.64,7.023
				l-11.575-6.243l11.64,6.893l-11.817-5.817l11.947,6.662l-11.785-5.694l11.85,6.28l-11.56-5.084l10.064,5.019l-8.973-3.771
				l7.385,3.641l-7.137-2.619l5.93,2.684c0,0-10.434-1.879-14.84-9.1c-0.115,0.972-0.44,1.037-0.44,1.037s6.633,7.737,13.85,8.193
				c-3.316-0.195-4.227,2.21-13.915-7.088c0.585,1.17,4.877,7.414,10.209,7.673c-2.536,0.065-8.648-4.486-10.209-6.112
				c1.625,2.21,3.122,4.942,8.323,6.567c-2.211-0.65-5.853-1.365-8.128-5.397c1.821,2.861,6.828,5.592,6.828,5.592l-7.246-4.204
				l6.271,4.774l-6.108-3.578l4.807,3.578l-0.78,0.471l-4.303-3.67l3.393,3.931l-9.233-11.379l8.63,11.704l-8.63-11.054
				l7.933,11.314l-8.258-10.859l7.608,11.119l-7.933-10.534l7.413,10.989l-7.413-10.339l6.438,10.664l-6.893-9.754l6.42,10.404
				l-7.009-9.605l6.181,9.996l-6.181-8.778l5.531,9.233l-5.531-7.998l4.88,8.453l-4.76-6.805l4.109,7.391l-5.332-7.933l5.007,9.003
				l-6.128-10.91l5.607,11.465l-6.393-12.428l5.743,12.428l-6.574-13.504l6.118,13.959l-7.141-15.354l6.491,15.668l-7.034-16.438
				l6.319,16.774l-6.837-17.529l6.251,17.854l-6.948-18.906l6.297,18.906l-6.297-17.622l5.517,18.05l-5.517-16.034l4.932,16.034
				l-4.932-13.758l4.282,14.435l-3.836-11.086l3.121,11.086l-3.566-9.054l2.786,9.509l-3.936-10.337l3.025,10.728l-4.267-11.299
				l3.422,11.754l-4.384-12.237l3.669,12.627l-4.807-13.256l4.091,13.646l-4.871-14.12l4.33,14.808l-5.434-15.566l4.284,15.566
				l-5.12-16.239l4.405,16.657l-5.288-17.525l4.183,17.888l-4.617-17.139l3.966,17.426l-2.394-8.55l1.744,9.136l-2.705-9.551
				l1.989,9.941l-2.601-10.259l2.01,10.957l-2.776-11.409l2.001,11.409l-2.83-12.271l2.245,12.477l-3.159-12.837l2.509,13.235
				l-3.366-13.933l2.716,14.453l-3.61-15.25l2.666,15.705l-3.457-16.473c0,0,3.008,17.563,2.924,17.083s-3.595-17.788-3.595-17.788
				l2.606,17.797l-3.417-18.726l2.826,18.94l-3.251-17.935l2.666,17.935l-2.991-15.399l2.081,15.399l-2.406-13.253l1.755,13.253
				l-1.905-9.25c0,0,1.125,9.563,0.995,9.25s-1.852-9.221-1.852-9.221l0.64,9.228l-1.514-9.694l0.483,9.405l-1.143-9.813
				l0.208,9.461l-0.923-9.949c0,0,0.061,9.424,0,9.229s-0.948-9.945-0.948-9.945v9.092l-0.561-9.553c0,0-0.873,9.497-0.655,8.619
				s-0.035-9.23-0.035-9.23l-0.898,7.381l0.41-7.849l-1.387,4.499l0.7-5.227l-0.7-0.662v2.341"/>
			<path fill="none" stroke="#FFFFFF" stroke-linecap="round" stroke-linejoin="round" d="M237.622,140.196l6.768-3.137
				l-5.793,3.137l6.373-3.137l-5.722,3.527l6.553-3.319l-5.253,3.319l5.803-2.957l-4.365,2.957l4.914-2.607l-3.426,2.607l3.774-2.39
				l-2.279,2.39l2.755-2.097l-0.907,1.661l1.533-0.865l-4.682,7.816l5.259-7.896l-4.539,7.896l5.193-7.517l-3.672,6.983l4.359-6.592
				l-2.96,5.812l3.82-5.592l-2.454,4.812l3.183-4.149l-1.492,3.109l2.016-2.47l-1.457,3.162l2.47-2.973l-3.744,8.003l4.413-7.65
				l-3.568,7.65l4.544-7.142l-3.309,6.689l4.059-6.304l-3.083,6.304l4.044-5.817l-2.548,4.773l3.381-4.357l-1.756,3.265l2.539-2.879
				l-2.399,3.678l3.051-3.359l-8.262,11.263l8.789-11.008l-7.554,10.173l8.38-9.776l-7.08,9.231l7.744-8.916l-5.923,8.019
				l6.556-7.722l-4.346,6.096l5.004-5.791l-3.053,4.62l3.752-4.298l-2.071,3.615l2.806-3.615l-6.112,11.389l6.567-10.718
				l-5.267,10.062l6.047-9.725l-4.812,9.013l5.541-8.81l-4.175,7.899l4.714-7.663l-3.349,7.013l4.076-6.698l-2.645,5.592
				l3.188-5.359l-1.563,4.346l2.514-3.942l-0.547,2.589l1.521-2.182l-6.349,11.965l6.904-11.736l-5.799,10.952l6.582-10.632
				l-4.761,8.812l5.746-8.416l-2.82,4.786l3.751-4.417l0.878,0.342l-1.125,0.871c0,0-8.28,10.498-10.704,11.207
				c1.212-2.826,7.624-14.315,6.665-12.217c-0.747,1.634-8.08,6.564-13.128,8.683c2.02-0.708,4.039-6.865,5.655-9.39
				c-2.02,1.414-9.492,6.665-11.916,6.815c0.606-0.051,5.756-6.613,7.372-9.76c-0.505,0.893-4.645,3.147-8.785,3.652
				c3.333-2.02,2.727-4.746,3.534-6.867c-1.01,0.605-4.847,3.737-10.603,4.544c3.333-0.202,6.261-8.281,6.261-8.281
				c-1.285,1.434-8.987,1.212-11.209,0c4.039-0.404,8.781-3.939,8.781-3.939s-4.237,0.607-7.973-1.514s-4.544-9.998-4.646-14.946
				c0.303,2.423,6.059,6.968,8.382,7.372c-1.918-1.515,0.404-7.069,0-11.209c2.625,3.534,6.463,6.564,9.29,7.473
				c-1.717-0.707-1.716-4.342-2.625-11.714c1.111,4.342,11.411,7.675,10.099,7.245s-1.616-7.446-1.212-11.486
				c0.404,0.707,4.241,6.564,7.069,8.988c-1.414-1.918,0.808-6.665,1.515-9.694c0.101,0.909,3.635,6.766,6.564,9.694
				c-0.707-0.605-0.909-6.665-0.504-9.694c0.405,1.616,6.058,6.665,9.593,7.573c-1.515-1.111-2.02-4.544-2.123-9.189
				c0.604,2.323,8.888,6.563,12.118,8.28c-1.719-1.515-4.037-6.564-3.532-8.987c0.303,1.717,6.968,6.261,9.391,7.17
				c-0.707-0.808-0.808-2.323-1.111-6.16c-0.202,0.707,4.443,4.342,5.403,5.655c-0.05-0.404-0.151-2.02,0.757-4.645
				c-0.101,0.606,2.423,7.069,3.332,8.028c0.101-0.354-0.909-2.877,0-5.503c-0.101,1.414,10.603,9.291,12.421,9.971
				c-0.303-0.329-0.202-2.195,0-3.71c0,0.707,4.14,4.746,4.14,4.746"/>
		</g>
	</g>
</g>
<path fill="none" stroke="#FFFFFF" stroke-linecap="round" stroke-linejoin="round" d="M445.125,135.905c0,0,19.875-17.5,24-19.5
	s14-10.875,14.25-13.375c-1.375,4.125-0.75,5.75-3.5,8s-3.75,3.375-3.75,3.375s5.375-1.5,6.625-2.5s9-8.75,9.75-11.5
	c1.875,1.375,4.625,4.75,3.875,6.375c3.625-4.25,6.375-9.25,6.625-10.25c0.125,2,0.5,4,0,5.125c1.625-1,4.75-3.25,5.25-4.125
	c-0.625,2.875-2.5,9.875-3.25,10.25c2.75-2.875,7.25-11.5,6.75-13c1.125,4.25,0.375,10.875-0.625,12.25c3-2.625,10-12.25,10.75-13
	c-0.5,3.125-3,8.625-3.5,9.5c1.875-1.25,2.75,0.375,4.5-3.625c-1.125,4.75-2.375,8.25-2.875,8.625c3-2.5,9.375-10.75,10.25-13.125
	c0.125,2.625-0.625,4.625-0.625,4.625s4.75-4.5,6-9c-1.75,6.25-5.625,14.25-7,15.5c3-2,11.125-10.125,12-14.625
	c-1,5.5-4.375,14.5-5.625,16c2.75-1.625,9.25-4.875,14.625-18c-2.5,9.75-4,17.375-5,17.875c3.875-2.625,8.375-7.375,9.5-14.5
	c0,6.375,1.375,11.5,0,13c4.375-3.5,8.25-7.375,9.375-8.75c-2,5.5-3.25,11.375-4.625,12.375c3.25-3,6.375-4.75,7.125-6.375
	c-2.25,5.875-2.625,10.125-4.25,11.25c4.875-3.25,4.625-2.25,5.75-3.875c-0.75,3.5-8.125,16.375-14.875,17.75
	c1.625,1.25,3.875,6.625,3.75,9.25c-2.5,0.625-3.25,0-3.25,0s0.375,4.5-0.125,6.375c-1.25-1.25-2.25-2.25-2.25-2.25
	c0.25,2.25,1.375,7.25,0.25,8.125c-1.125-3.5-3.375-6.875-4.25-7.125c0.875,3.125,0.875,5,0.875,5.375
	c-1-0.375-2.375-0.875-2.375-0.875s0.875,3.875-0.25,4.375c-1.625-1.375-1.625-3.125-4.875-3.75c-1.25,2.625-2,7.5-2.75,8.5
	c-1.375-3-4.5-7.75-5.375-7.875c-0.75,1.75-1.875,7-0.125,9c-3.25-1.625-8.5-6.75-8.625-8.375c0.75,3.875,1.75,5.125,1.25,6.625
	c-2-2.25-6.625-8.625-8.125-9c-0.625,1.375-2,0.625-1.75,2.125c0.5,1.875,3.75,7.5,3.625,8.625c-2-2-7.125-7-7.125-8.75
	c-1.875-0.375-1-0.375-1.875-0.375s-0.375,2.75,0.75,4c1.25,1.25,5.375,8.75,5.375,9.375c-2.375-2-5-7.375-6.25-7.75
	c0,3.875-1.125,7.75-1.125,7.75c-1.375-3-2.625-9.5-2.625-10.625s-0.625-2.875-1.5-2.75s-19.125,2.875-27.5-1.125
	c3.375,0.75,28.625-0.375,39-5.375s21-9,22.125-13.25s-32.375-22-64.375-6C465,129.03,464,131.53,464,131.53s1.991,9.284,8.5,13.125
	c1,2,1.375,2.75,1.375,2.75c-3.25-0.5-9.25-4.125-11.125-4.125s-7.75,5.875-11.5,2s-1.625-6.875-1.625-7.375
	C447.75,137.905,445.125,135.905,445.125,135.905z"/>
<path fill="none" d="M463.25,141.28c0,0-7.125-8.375-10.375-5.875s-3.125,7.75,0.875,7.625S461.625,140.405,463.25,141.28z"/>
<path fill="none" stroke="#FFFFFF" stroke-linecap="round" stroke-linejoin="round" d="M476.125,122.655
	c0,0-2.235,16.075,13.5,19.375c16.688,3.5,25.028-7.875,24.875-24.127"/>
<path fill="none" stroke="#9B9B9B" stroke-linecap="round" stroke-linejoin="round" d="M480.625,128.28c0,0,0.75-2.875,2.75-2.312
	s2.375,2.82,3.25,4.316s3.875,3.871,6.875,3.746s6.875-2.631,7.375-4.065s1.375-3.685,3-3.06s5.375,4.193,1.75,8.034
	s-5.83,6.787-13.125,6.216S479.281,137.251,480.625,128.28z"/>
<path fill="none" stroke="#FFFFFF" stroke-linecap="round" stroke-linejoin="round" d="M505.125,119.405c0,0,4.625,0.875,3.625,4
	s-2.75,0-6,0s-6.75-0.938-4.125-4S505.125,119.405,505.125,119.405z"/>
<path fill="none" stroke="#FFFFFF" stroke-linecap="round" stroke-linejoin="round" d="M447.667,107.947l7.333,4l14.667-7.544
	c0,0,44.666-10.456,49.666-12.123c3-2,19.334-3.667,23.667-5.667c5-1.333,32.333-3.333,34.333-2.333
	c-6.666-3.667-43.026-8.333-70.18-1.667s-55.324,10.629-56.572,12.981S447.667,107.947,447.667,107.947z"/>
<path fill="none" stroke="#FFFFFF" stroke-linecap="round" stroke-linejoin="round" d="M345.333,118.918l10.449,2.501l5.551-5.472
	c0,0-26.667-17.703-44.667-20.352S282,88.28,266.333,92.28s-23,6.667-24.333,7.667c9-0.333,35.637-3,40.818-2
	s36.323,5.245,37.919,6.456S345.333,118.918,345.333,118.918z"/>
<path fill="none" stroke="#FFFFFF" stroke-linecap="round" stroke-linejoin="round" d="M193.663,256.946
	c0,0,15.334-12.667,22.667-15.333s36-17.333,41.333-20.667s20.939-8,34.803-6s47.197,8,53.197,8.667s15.342,6.852,15.671,12.093
	s-9.004,11.241-25.004,13.241s-35.947,10-43.307,11.333s-23.36,4-33.36,10s-32,13.333-34,36s-4.666,33.333-5.333,37.333
	s-15.333,10-17.333,12.667c15.333-6,34.122-22.666,41.394-27.333s29.659-11.333,40.799,2s57.806,63.332,62.473,100.666
	s6,61.333-7.333,66s-14.173-15.333-14.753-25.333s-11.748-38.667-14.164-44.667s-14.143-30.666-18.946-38.666
	s0.557-3.334,0.557-3.334"/>
<path fill="none" stroke="#FFFFFF" stroke-linecap="round" stroke-linejoin="round" d="M278.628,368.946
	c0,0-7.511-20.667-34.238-8.667s-44.061,33.333-44.061,33.333"/>
<path fill="none" stroke="#FFFFFF" stroke-linecap="round" stroke-linejoin="round" d="M260.996,413.612c0,0-55.333,28-60.667,40
	s-4,20-4,20"/>
<path fill="none" stroke="#FFFFFF" stroke-linecap="round" stroke-linejoin="round" d="M290.858,454.279c0,0,9.682,42,9.577,50
	s4.726,23.333,10.977,22s16.917-10.666,16.917-15.333s0-20.069,0-20.069"/>
<path fill="none" stroke="#FFFFFF" stroke-linecap="round" stroke-linejoin="round" d="M228.589,484.279
	c0,0,26.407,8.667,35.741-17.333c0,16-0.667,27.999,0,34.666s6.018,17.334,6.018,17.334s25.079,22.666,27.864,23.333
	s9.313,0,11.382-4s1.818-12,1.818-12"/>
<path fill="none" stroke="#FFFFFF" stroke-linecap="round" stroke-linejoin="round" d="M222.996,486.279
	c0,0,15.83,6.082,22.915,4.041s18.418,0.626,15.085,3.959s-13.503-1.943-15.085,4.028s-7.085,5.973,0,12.639
	s27.105,23.334,30.429,26s44.656,31.999,46.656,52.666c0,0-15.889-47.22-20.337-47.276"/>
<path fill="none" stroke="#FFFFFF" stroke-linecap="round" stroke-linejoin="round" d="M456.915,0c0,0-4.574,23.608-9.248,30.941
	c7.326-7.333,15.583-15.471,15.583-15.471s-37.24,74.112-39.082,80.125c12.825-15.987,31.336-51.321,32.747-53.321
	c-7.255,24-27.353,62.679-35.97,69.673c12.048-9.673,30.715-38.34,32.715-43.673c-6.667,15.333-11.562,27.321-11.562,27.321
	S482.326,25.727,486.326,0"/>
<path fill="none" stroke="#FFFFFF" stroke-linecap="round" stroke-linejoin="round" d="M493.794,0l-7.468,37.607
	c0,0,9.424-27.882,11.379-37.608"/>
<path fill="none" stroke="#FFFFFF" stroke-linecap="round" stroke-linejoin="round" d="M514.502,0v26.941
	c0,0,4.491-17.883,4.491-26.941"/>
<path fill="none" stroke="#FFFFFF" stroke-linecap="round" stroke-linejoin="round" d="M433.66,0c0,0-57.333,40.274-62,44.274
	s-27.333,33.271-30,34.969c9.333-12.969,25.333-37.635,28.667-41.635s44-33.881,46-37.607"/>
<path fill="none" stroke="#FFFFFF" stroke-linecap="round" stroke-linejoin="round" d="M374.327,0c0,0-29.356,41.673-74.678,55.974
	S251.13,70.941,251.13,70.941s61.748-6.044,110.203-35.471S411.66,0,411.66,0"/>
<path fill="none" stroke="#FFFFFF" stroke-linecap="round" stroke-linejoin="round" d="M264.988,272.271c0,0,0.346,35,8.008,35.333
	c15.325,0.667,34.276,0,34.276,0"/>
<path fill="none" stroke="#FFFFFF" stroke-linecap="round" stroke-linejoin="round" d="M364.988,236.937c0,0,44-0.667,50.667,0
	c6.667-3.333,21.607-4.593,29.47-0.296s18.125,4.963,18.125,4.963s27.613,0,32.009,0s70.753-3.039,72.241-3.853
	s47.488-8.892,56.821-3.853s8.666,43.706,9.333,51.039s8.001,10.74,11.334,12.703c1.333,26.63,4,97.981,3.333,115.972
	s4.211,23.342,0.105,30s-52.749,22.677-71.094,23.334s-50.345,0-50.345,0"/>
<path fill="none" stroke="#FFFFFF" stroke-linecap="round" stroke-linejoin="round" d="M270.348,307.899
	c0,0-30.693,2.371-5.36,7.704s70.667,0,70.667,0s10.667-2.001,10,7.333s1.333,38.667,4.667,46.667s-0.271,31.331-8.661,28
	s-34.471-42-30.238-72"/>
<path fill="none" stroke="#FFFFFF" stroke-linecap="round" stroke-linejoin="round" d="M480.434,252.937c0,0-18.255-4.667-17.184,6
	s-2.207,25.333,12.766,25.333s31.138,0,31.138,0s17.834,4,18.501-8s5.119-24.562-22.356-24.35"/>
<path fill="none" stroke="#FFFFFF" stroke-linecap="round" stroke-linejoin="round" d="M469.654,272.271c0,0,49.293,4,56.313,0"/>
<path fill="#FFFFFF" stroke="#FFFFFF" stroke-linecap="round" stroke-linejoin="round" d="M554.988,297.64
	c0,0,18,36.901,3.333,77.432c0,19.864,0.001,63.883-23.333,79.207c18.666,0.657,68.667-3.991,84-10.667s18-2.009,20-22.009
	s13.333-133.704-18.667-131.519S566.322,294.344,554.988,297.64z"/>
<path fill="none" stroke="#FFFFFF" stroke-linecap="round" stroke-linejoin="round" d="M403.667,330.281
	c0,0-30,20.667-34.667,36.667s-12,81.33,17.333,99.998s77.365,21.998,89.683,19.333s56.961-13.998,58.973-27.998
	c-15.321,7.333-28.624,24.667-58.973,22.667c-30.349-5.334-67.683-10-84.349-32s-25.333-47.333-18.667-68
	S398.333,334.948,403.667,330.281z"/>
</svg>
