<?xml version="1.0" encoding="utf-8"?>
<!-- Generator: Adobe Illustrator 21.0.2, SVG Export Plug-In . SVG Version: 6.00 Build 0)  -->
<svg version="1.1" id="Layer_1" xmlns="http://www.w3.org/2000/svg" xmlns:xlink="http://www.w3.org/1999/xlink" x="0px" y="0px"
	 viewBox="0 0 631 517.1" style="enable-background:new 0 0 631 517.1;" xml:space="preserve">
<style type="text/css">
	.st0{fill:#FFDC68;}
	.st1{fill:#FFF2C6;}
	.st2{fill:#FFEDB4;}
	.st3{fill:url(#SVGID_1_);}
	.st4{fill:#FFFFFF;}
</style>
<g id="surface1">
	<path class="st0" d="M178.3,105.5L136,137.2L56.9,31.7L99.1,0L178.3,105.5z"/>
	<path class="st0" d="M574,31.7l-79.1,105.5l-42.2-31.7L531.8,0L574,31.7z"/>
	<path class="st1" d="M550.5,344.9c-4.9-7.9-13.2-12.5-22.4-12.5H102.7c-14.5,0-26.4,11.9-26.4,26.4c0,4,1,8.2,2.6,11.9
		c65,130.2,223.2,183.7,353.8,119c51.8-25.7,93.3-67.3,119-119C555.8,362.4,555.5,352.5,550.5,344.9z"/>
	<path class="st2" d="M158.1,370.6c-6.6-13.2-1.3-29,11.9-35.3c3.6-1.6,7.6-2.6,11.9-2.6h-79.1c-14.5,0-26.4,11.9-26.4,26.4
		c0,4,1,8.2,2.6,11.9c44.5,89.7,136.2,146.4,236.4,146.1c13.2,0,26.4-1,39.6-3C269.9,501.5,196.4,447.8,158.1,370.6z"/>
	
		<linearGradient id="SVGID_1_" gradientUnits="userSpaceOnUse" x1="-152.2812" y1="1.8188" x2="-3.5834" y2="150.5167" gradientTransform="matrix(2.6646 0 0 -2.6646 523.2552 412.3725)">
		<stop  offset="0" style="stop-color:#FF99B5"/>
		<stop  offset="1" style="stop-color:#FFDC68"/>
	</linearGradient>
	<path class="st3" d="M315.4,15.8C184.5,15.8,78,122.3,78,253.2c0,14.5,11.9,26.4,26.4,26.4h422.1c14.5,0,26.4-11.9,26.4-26.4
		C552.8,122.3,446.3,15.8,315.4,15.8z"/>
	<path class="st0" d="M604.6,358.8H26.2c-23.1,0-35-28.7-18.8-45.2L78,253.2h474.8l70.2,60.3C639.6,330.1,627.7,358.8,604.6,358.8z"
		/>
	<path class="st4" d="M447.3,121.3c0,14.6-11.8,26.4-26.4,26.4s-26.4-11.8-26.4-26.4S406.4,95,420.9,95S447.3,106.8,447.3,121.3z"/>
</g>
</svg>
