<?xml version="1.0" encoding="utf-8"?>
<!-- Generator: Adobe Illustrator 21.0.2, SVG Export Plug-In . SVG Version: 6.00 Build 0)  -->
<svg version="1.1" id="Layer_1" xmlns="http://www.w3.org/2000/svg" xmlns:xlink="http://www.w3.org/1999/xlink" x="0px" y="0px"
	 viewBox="0 0 512 406.3" style="enable-background:new 0 0 512 406.3;" xml:space="preserve">
<style type="text/css">
	.st0{fill:#877E73;}
	.st1{fill:#B6CECC;}
	.st2{fill:#CFE5E2;}
	.st3{fill:#9379AD;}
	.st4{fill:#694887;}
	.st5{fill:#80995F;}
	.st6{fill:#A6BE65;}
</style>
<path class="st0" d="M364.1,152.8c-4.5-4.2-4.7-11.3-0.4-15.7l95.7-101.3c4.2-4.5,11.3-4.7,15.7-0.4c4.5,4.2,4.7,11.3,0.4,15.7
	l-95.7,101.3c-2.2,2.3-5.1,3.5-8.1,3.5C369,155.8,366.3,154.8,364.1,152.8z M132.2,152.3c2.2,2.3,5.1,3.5,8.1,3.5c2.7,0,5.5-1,7.6-3
	c4.5-4.2,4.7-11.3,0.4-15.7L52.6,35.8c-4.2-4.5-11.3-4.7-15.7-0.4c-4.5,4.2-4.7,11.3-0.4,15.7L132.2,152.3z"/>
<path class="st1" d="M100.2,197.5v-13.8c0-86.1,69.8-155.8,155.8-155.8l0,0c86.1,0,155.8,69.8,155.8,155.8v13.8H100.2z"/>
<path class="st2" d="M354.2,149.6c-1.2,0.4-2.5,0.6-3.7,0.6c-4.6,0-8.9-2.9-10.5-7.4c-12.5-35.5-46.3-59.4-84-59.4
	c-6.1,0-11.1-5-11.1-11.1c0-6.1,5-11.1,11.1-11.1c47.1,0,89.3,29.8,105,74.2C363,141.2,360,147.6,354.2,149.6z"/>
<path class="st3" d="M500.8,283.8h-22.2c0,67.6-99.7,122.4-222.6,122.4S33.4,351.4,33.4,283.8H11.2c-10.2,0-15-12.6-7.4-19.4
	l46.7-41.5c20.4-18.1,46.7-28.1,73.9-28.1h263.3c27.3,0,53.6,10,73.9,28.1l46.7,41.5C515.9,271.2,511.1,283.8,500.8,283.8z"/>
<path class="st4" d="M478.6,283.8c0,67.6-99.7,122.4-222.6,122.4S33.4,351.4,33.4,283.8H478.6z"/>
<path class="st5" d="M512,33.4c0,18.4-14.9,33.4-33.4,33.4s-33.4-15-33.4-33.4S460.2,0,478.6,0S512,15,512,33.4z M33.4,0
	C14.9,0,0,15,0,33.4s14.9,33.4,33.4,33.4s33.4-15,33.4-33.4S51.8,0,33.4,0z"/>
<path class="st6" d="M484.2,11.1c9.2,0,16.7,7.5,16.7,16.7s-7.5,16.7-16.7,16.7c-9.2,0-16.7-7.5-16.7-16.7S475,11.1,484.2,11.1z
	 M27.8,11.1c-9.2,0-16.7,7.5-16.7,16.7s7.5,16.7,16.7,16.7S44.5,37,44.5,27.8S37,11.1,27.8,11.1z"/>
</svg>
