<?xml version="1.0" encoding="utf-8"?>
<!-- Generator: Adobe Illustrator 21.0.2, SVG Export Plug-In . SVG Version: 6.00 Build 0)  -->
<svg version="1.1" id="Capa_1" xmlns="http://www.w3.org/2000/svg" xmlns:xlink="http://www.w3.org/1999/xlink" x="0px" y="0px"
	 viewBox="0 0 512 414.5" style="enable-background:new 0 0 512 414.5;" xml:space="preserve">
<style type="text/css">
	.st0{fill:#D49E6C;}
	.st1{fill:#B68052;}
	.st2{fill:#9D693C;}
</style>
<g>
	<path class="st0" d="M362.3,413.4c-2,0.2-4,0.3-6.1,0.5C358.3,413.7,360.3,413.5,362.3,413.4z"/>
	<path class="st0" d="M474.5,191.1c-10.9-8.3-25.4-23.5-42.1-41.1c-6.6-7-13.7-14.4-21.2-22.1c-2.3-2.4-5.8-3.1-8.8-1.8
		c-10.8,4.5-28.3-0.1-42.8-11.2C340,99.8,333.9,80.4,339.5,71c2.1-3.5,1.2-7.9-1.9-10.4c-14-10.9-27.3-20.2-40.5-28.3
		c6.2,3.8,12.3,7.9,18.6,12.2c-55.8-6.3-168.7,11.5-179.8,97.9c-3.5,27.3,3.5,60.3,19.3,93.7c1.8-0.3,3.6-0.6,5.5-0.9
		c24.6-2.9,45.9,5.8,47.6,19.5c1.3,10.7-9.7,21.2-26.2,26.7c42.8,59.8,112.3,113.4,198.2,129.9c-5.9,0.9-11.8,1.6-17.9,2.1
		c52.9-4.6,100.1-23.3,123.3-62.3C500.2,326.5,542.4,242.6,474.5,191.1z M207.5,176c-34.5-9.1-58.3-32.2-53.2-51.5
		s37.2-27.5,71.7-18.4c34.5,9.1,58.3,32.2,53.2,51.5S242,185.1,207.5,176z M293.3,343.7c-26.6-1-47.6-14.7-47.1-30.5
		c0.6-15.9,22.6-27.9,49.2-26.9c26.6,1,47.6,14.7,47.1,30.5C341.9,332.7,319.9,344.7,293.3,343.7z M404.1,232.6
		c-4.2,10.8-22,13.8-39.8,6.9c-17.8-7-28.7-21.3-24.5-32.1c4.2-10.8,22-13.8,39.8-6.9C397.4,207.5,408.3,221.8,404.1,232.6z
		 M447.6,326.6c-13.5,12.9-30.6,16.9-38.1,9s-2.8-24.8,10.7-37.7s30.6-16.9,38.1-9C465.9,296.8,461.1,313.7,447.6,326.6z"/>
	<path class="st1" d="M182,281.4c16.5-5.5,27.5-16.1,26.2-26.7c-1.6-13.7-22.9-22.4-47.6-19.5c-1.9,0.2-3.7,0.5-5.5,0.9
		c-15.8-33.4-22.8-66.3-19.3-93.7c11.1-86.4,124-104.2,179.8-97.9c-6.2-4.3-12.4-8.4-18.6-12.2C212.9-19.5,146.4,0.5,92.4,26.9
		C9.5,67.6-13.5,177.2,7.1,259.6c21.6,86.6,120.8,112.7,216.7,138l15,4c30.6,8.1,64.2,12.9,96.8,12.9c1.9,0,3.8,0,5.7-0.1
		c1.7,0,3.4-0.1,5.2-0.1c1.2,0,2.4-0.1,3.6-0.1c0.5,0,0.9,0,1.4-0.1c1.5-0.1,3-0.2,4.5-0.3c0.1,0,0.2,0,0.3,0c2-0.1,4-0.3,6.1-0.5
		c0,0,0.1,0,0.1,0c6-0.5,12-1.2,17.9-2.1C294.4,394.8,224.9,341.1,182,281.4z M146.2,35.4c9.6-4,25.7-5.6,36.8-0.8
		c4.1,1.8,5.9,6.5,4.2,10.5c-1.8,4-6.4,5.9-10.5,4.2c-6.2-2.7-18-1.8-24.3,0.9c-1,0.4-2,0.6-3.1,0.6c-3.1,0-6.1-1.9-7.4-4.9
		C140.2,41.7,142.1,37.1,146.2,35.4z M22.8,98.4c6.7-13.5,15.1-25.9,25-37.1c12-3.8,24.5-5.2,35.8-6.4c12.9-1.4,25-2.8,33.8-7
		c4-1.9,8.8-0.3,10.7,3.7c1.9,4,0.3,8.8-3.7,10.7c-11.2,5.4-24.7,7-39,8.5C61.4,73.4,36.7,76.2,22.8,98.4z M115.5,220
		c-0.4,4.4-4.3,7.6-8.6,7.4c-6.1-0.5-9.1,1.1-11,2.6c-1.5,1.1-3.2,1.7-4.9,1.7c-2.4,0-4.8-1.1-6.4-3.1c-2.7-3.5-2-8.5,1.5-11.2
		c6-4.6,13.2-6.5,22-5.8C112.5,211.7,115.8,215.6,115.5,220z M56.6,147.3c3.1-22.1,15.6-38.6,27.9-36.9
		c12.3,1.7,19.7,21.1,16.6,43.2c-3.1,22.1-15.6,38.6-27.9,36.9C60.9,188.8,53.4,169.4,56.6,147.3z M118.8,296.7
		c-0.4,4.1-3.9,7.2-7.9,7.2c-0.3,0-0.6,0-0.9,0c-14.2-1.5-26.7-9.3-34.3-21.4c-7.2-11.4-8.8-25-4.5-37.4c1.5-4.2,6.1-6.4,10.2-4.9
		c4.2,1.5,6.3,6,4.9,10.2c-2.7,7.7-1.7,16.2,2.9,23.5c5,7.9,13.2,13.1,22.5,14C116.1,288.4,119.3,292.3,118.8,296.7z M119.1,265.3
		c-1.5-12.7,14.3-25.1,36.1-29.3c7.2,15.2,16.2,30.4,26.8,45.3c-4.7,1.6-9.9,2.8-15.4,3.5C142,287.7,120.7,279,119.1,265.3z
		 M249.4,404.1c-5.3-5.8-9.7-12-13.9-17.9c-7.8-11-14.4-20.5-25.7-25.7c-14.5-6.7-34.4-15.8-37.8-35.5c-0.8-4.4,2.2-8.5,6.5-9.2
		c4.5-0.7,8.5,2.2,9.2,6.5c2,11.4,16.8,18.2,28.7,23.7c15.2,7,23.8,19.2,32.1,31c10.2,14.4,19.8,28,41.5,34.4c0.1,0,0.2,0.1,0.4,0.2
		C276.5,409.8,262.7,407.2,249.4,404.1z"/>
	
		<ellipse transform="matrix(3.749987e-02 -0.9993 0.9993 3.749987e-02 -31.5011 597.3922)" class="st1" cx="294.4" cy="315" rx="28.7" ry="48.2"/>
	<ellipse transform="matrix(0.365 -0.931 0.931 0.365 31.3742 486.0144)" class="st1" cx="372" cy="220" rx="20.9" ry="34.5"/>
	
		<ellipse transform="matrix(0.7224 -0.6915 0.6915 0.7224 -95.4569 386.7072)" class="st1" cx="433.9" cy="312.2" rx="33.8" ry="19.9"/>
	
		<ellipse transform="matrix(0.1401 -0.9901 0.9901 0.1401 -81.2012 207.4542)" class="st2" cx="78.8" cy="150.5" rx="40.4" ry="22.5"/>
	<path class="st2" d="M149.3,50.8c1,0,2.1-0.2,3.1-0.6c6.4-2.6,18.1-3.5,24.3-0.9c4.1,1.8,8.8-0.1,10.5-4.2
		c1.8-4.1-0.1-8.8-4.2-10.5c-11.1-4.8-27.2-3.2-36.8,0.8c-4.1,1.7-6,6.4-4.3,10.4C143.2,48.9,146.1,50.8,149.3,50.8z"/>
	<path class="st2" d="M111.7,287.9c-9.3-1-17.5-6.1-22.5-14c-4.6-7.3-5.6-15.8-2.9-23.5c1.5-4.2-0.7-8.7-4.9-10.2
		c-4.1-1.5-8.7,0.7-10.2,4.9c-4.4,12.3-2.8,25.9,4.5,37.4c7.6,12.1,20.2,19.9,34.3,21.4c0.3,0,0.6,0,0.9,0c4,0,7.5-3.1,7.9-7.2
		C119.3,292.3,116.1,288.4,111.7,287.9z"/>
	<path class="st2" d="M86.2,217.2c-3.5,2.7-4.2,7.7-1.5,11.2c1.6,2.1,3.9,3.1,6.4,3.1c1.7,0,3.4-0.5,4.9-1.7c1.9-1.5,4.9-3.1,11-2.6
		c4.3,0.3,8.2-3,8.6-7.4c0.3-4.4-3-8.2-7.4-8.6C99.3,210.7,92.2,212.6,86.2,217.2z"/>
	<path class="st2" d="M155.2,236c-21.8,4.1-37.6,16.6-36.1,29.3c1.6,13.7,22.9,22.4,47.6,19.5c5.5-0.7,10.7-1.9,15.4-3.5
		C171.4,266.4,162.4,251.2,155.2,236z"/>
	
		<ellipse transform="matrix(0.2563 -0.9666 0.9666 0.2563 24.8821 314.3828)" class="st1" cx="216.7" cy="141" rx="36.1" ry="64.6"/>
	<path class="st2" d="M124.3,62.2c4-1.9,5.6-6.7,3.7-10.7c-1.9-4-6.7-5.6-10.7-3.7c-8.7,4.2-20.9,5.6-33.8,7
		c-11.3,1.3-23.8,2.7-35.8,6.4c-9.9,11.1-18.3,23.6-25,37.1c13.9-22.2,38.6-24.9,62.6-27.6C99.6,69.2,113.1,67.7,124.3,62.2z"/>
	<path class="st2" d="M248.6,377c-8.3-11.8-16.9-24-32.1-31c-11.9-5.5-26.8-12.3-28.7-23.7c-0.8-4.3-4.8-7.2-9.2-6.5
		c-4.4,0.8-7.3,4.9-6.5,9.2c3.4,19.7,23.3,28.8,37.8,35.5c11.3,5.2,18,14.7,25.7,25.7c4.1,5.9,8.5,12,13.9,17.9
		c13.4,3.1,27.1,5.7,41.1,7.4c-0.1,0-0.2-0.1-0.4-0.2C268.3,405,258.7,391.4,248.6,377z"/>
</g>
</svg>
