<?xml version="1.0" encoding="iso-8859-1"?>
<!-- Generator: Adobe Illustrator 19.0.0, SVG Export Plug-In . SVG Version: 6.00 Build 0)  -->
<svg version="1.1" id="Layer_1" xmlns="http://www.w3.org/2000/svg" xmlns:xlink="http://www.w3.org/1999/xlink" x="0px" y="0px"
	 viewBox="0 0 512 512" style="enable-background:new 0 0 512 512;" xml:space="preserve">
<polygon style="fill:#E21B1B;" points="256,0 256,0 256,0 256,0 256,0 52.112,278.56 52.112,512 121.12,438.864 256,438.864 
	256,438.864 390.88,438.864 459.888,512 459.888,278.56 "/>
<polygon style="fill:#F91E1E;" points="256,0 256,0 256,0 256,0 256,0 52.112,278.56 52.112,512 121.12,438.864 256,438.864 "/>
<polygon style="fill:#FFFFFF;" points="220.96,346.368 220.96,245.04 256,197.152 256,197.152 256,197.152 256,197.152 256,197.152 
	291.04,245.04 291.04,346.368 "/>
<g>
</g>
<g>
</g>
<g>
</g>
<g>
</g>
<g>
</g>
<g>
</g>
<g>
</g>
<g>
</g>
<g>
</g>
<g>
</g>
<g>
</g>
<g>
</g>
<g>
</g>
<g>
</g>
<g>
</g>
</svg>
