<?xml version="1.0" encoding="utf-8"?>
<!-- Generator: Adobe Illustrator 21.0.2, SVG Export Plug-In . SVG Version: 6.00 Build 0)  -->
<svg version="1.1" id="Layer_1" xmlns="http://www.w3.org/2000/svg" xmlns:xlink="http://www.w3.org/1999/xlink" x="0px" y="0px"
	 viewBox="0 0 512 407.8" style="enable-background:new 0 0 512 407.8;" xml:space="preserve">
<style type="text/css">
	.st0{fill:#E21B1B;}
	.st1{fill:#F91E1E;}
	.st2{fill:#FFFFFF;}
</style>
<g>
	<polygon class="st0" points="512,203.9 512,203.9 512,203.9 512,203.9 512,203.9 233.4,0 0,0 73.1,69 73.1,203.9 73.1,203.9 
		73.1,338.8 0,407.8 233.4,407.8 	"/>
	<polygon class="st1" points="512,203.9 512,203.9 512,203.9 512,203.9 512,203.9 233.4,0 0,0 73.1,69 73.1,203.9 	"/>
	<polygon class="st2" points="165.6,168.8 267,168.8 314.8,203.9 314.8,203.9 314.8,203.9 314.8,203.9 314.8,203.9 267,238.9 
		165.6,238.9 	"/>
</g>
</svg>
