<?xml version="1.0" encoding="utf-8"?>
<!-- Generator: Adobe Illustrator 21.0.2, SVG Export Plug-In . SVG Version: 6.00 Build 0)  -->
<svg version="1.1" id="Capa_1" xmlns="http://www.w3.org/2000/svg" xmlns:xlink="http://www.w3.org/1999/xlink" x="0px" y="0px"
	 viewBox="0 0 619.1 511" style="enable-background:new 0 0 619.1 511;" xml:space="preserve">
<style type="text/css">
	.st0{fill:#A8D3D8;}
	.st1{fill:#8EBAC5;}
	.st2{fill:#00CCB2;}
	.st3{fill:#00AB94;}
	.st4{fill:#5A5A5A;}
	.st5{fill:#444444;}
	.st6{fill:#00DDC1;}
	.st7{fill:#DEECF1;}
	.st8{fill:#FDBF00;}
	.st9{fill:#FF9F00;}
</style>
<rect x="540.3" y="241" class="st0" width="78.8" height="30"/>
<rect x="540.3" y="256" class="st1" width="78.8" height="15"/>
<polygon class="st2" points="339.6,181 264.6,31 345.3,31 345.3,1 165.3,1 165.3,181 252.6,211 "/>
<polygon class="st3" points="345.3,481 264.6,481 339.6,331 264.7,301 165.3,331 165.3,511 345.3,511 "/>
<path class="st4" d="M550.8,266.5l10.8-10.5l-10.8-10.5c-41.4-41.7-96.6-64.5-155.4-64.5l-230.1,0l0,150h230.1
	C454.2,331,509.4,308.2,550.8,266.5z"/>
<path class="st5" d="M395.4,331H165.3v-75h396.3l-10.8,10.5C509.4,308.2,454.2,331,395.4,331z"/>
<rect x="375.3" y="241" class="st6" width="90" height="30"/>
<rect x="135.3" y="241" class="st0" width="90" height="30"/>
<path class="st7" d="M210.3,211l-90,0l0-90h90c24.9,0,45,20.1,45,45C255.3,190.9,235.2,211,210.3,211z"/>
<path class="st0" d="M210.3,211l-90,0l0-45l135,0C255.3,190.9,235.2,211,210.3,211z"/>
<path class="st8" d="M135.3,166c0-24.9-20.1-45-45-45c-5.7,0-11.7,1.2-18.9,4.2L0,166l73.2,41.7c5.4,2.1,11.4,3.3,17.1,3.3
	C115.2,211,135.3,190.9,135.3,166z"/>
<path class="st9" d="M90.3,211c-5.7,0-11.7-1.2-17.1-3.3L0,166h135.3C135.3,190.9,115.2,211,90.3,211z"/>
<path class="st7" d="M210.3,391l-90,0l0-90h90c24.9,0,45,20.1,45,45C255.3,370.9,235.2,391,210.3,391z"/>
<path class="st0" d="M210.3,391l-90,0l0-45h135C255.3,370.9,235.2,391,210.3,391z"/>
<path class="st8" d="M135.3,346c0-24.9-20.1-45-45-45c-5.7,0-11.7,1.2-18.9,4.2L0,346l73.2,41.7c5.4,2.1,11.4,3.3,17.1,3.3
	C115.2,391,135.3,370.9,135.3,346z"/>
<path class="st9" d="M90.3,391c-5.7,0-11.7-1.2-17.1-3.3L0,346h135.3C135.3,370.9,115.2,391,90.3,391z"/>
<rect x="375.3" y="256" class="st2" width="90" height="15"/>
<rect x="135.3" y="256" class="st1" width="90" height="15"/>
</svg>
