<?xml version="1.0" encoding="utf-8"?>
<!-- Generator: Adobe Illustrator 21.0.2, SVG Export Plug-In . SVG Version: 6.00 Build 0)  -->
<svg version="1.1" id="Layer_1" xmlns="http://www.w3.org/2000/svg" xmlns:xlink="http://www.w3.org/1999/xlink" x="0px" y="0px"
	 viewBox="0 0 404 370.5" style="enable-background:new 0 0 404 370.5;" xml:space="preserve">
<style type="text/css">
	.st0{fill:#B7A39A;}
	.st1{fill:#A08E87;}
	.st2{fill:#898890;}
	.st3{fill:#75747A;}
</style>
<path class="st0" d="M401.2,144.1c11.6-42.4-12.7-86.8-54.6-100c-9.7-3.1-19.6-4.2-29.2-3.7c-17.3,0.9-34.2-4.9-47.6-15.9
	C239.9-0.3,197.5-7.7,159.5,8.9c-32,14-53.7,41.9-61,73.5c-5.7,24.8-20.8,46.3-42.1,60.1c-25.7,16.7-45.3,42.9-53,75
	c-16,66.6,25,133.6,91.6,149.6c30.7,7.4,61.4,2.7,87.2-11.1c17-9,36.8-11,55-4.9c13.3,4.5,27.8,6.5,42.6,5.6
	c60.3-4,106.6-56.4,103-116.8c-0.5-8.2-1.9-16.1-4-23.7c-4.4-15.3-0.8-31.7,8.8-44.5C393.7,163.7,398.4,154.4,401.2,144.1z"/>
<path class="st1" d="M159.5,8.9c-32,14-53.7,41.9-61,73.5c-5.7,24.8-20.8,46.3-42.1,60.1c-25.7,16.7-45.3,42.9-53,75
	c-16,66.6,25,133.6,91.6,149.6c30.2,7.3,60.5,2.8,86.1-10.5c-7.1-11.8-15.6-24.1-25.7-36.7c-66.2-82.4-16.3-96.6,0-189.7
	c11.3-64.4,50.4-106.7,73.5-126.7C206.6-2.4,182.3-1,159.5,8.9z"/>
<g>
	<path class="st2" d="M181.4,99.8c0-33-16.4-62.1-41.5-79.8c-21.2,15.3-35.7,37.7-41.4,62.3c-5.7,24.8-20.8,46.3-42.1,60.1
		c-13.2,8.6-24.8,19.7-34,32.8C39.2,189,60.6,197.3,84,197.3C137.8,197.3,181.4,153.6,181.4,99.8z"/>
	<path class="st2" d="M382.9,239.9c-0.5-8.2-1.9-16.1-4-23.7c-4.4-15.3-0.8-31.7,8.8-44.5c6-8,10.7-17.3,13.5-27.6
		c0.3-1.2,0.6-2.5,0.9-3.7c-11.3-6.9-24.6-10.9-38.8-10.9c-41.2,0-74.5,33.4-74.5,74.5c0,41.2,33.4,74.5,74.5,74.5
		c5.3,0,10.5-0.6,15.5-1.6C382.2,265.2,383.7,252.8,382.9,239.9z"/>
	<path class="st2" d="M181.4,295.5c-36.1,0-65.3,29.2-65.3,65.3c0,3.2,0.2,6.4,0.7,9.5c23.2,1.4,45.8-3.9,65.5-14.3
		c17-9,36.8-11,55-4.9c3,1,6,1.9,9,2.6C242.8,321,215.1,295.5,181.4,295.5z"/>
	<path class="st2" d="M239.6,211.4c0,14.4-11.7,26.1-26.1,26.1c-14.4,0-26.1-11.7-26.1-26.1s11.7-26.1,26.1-26.1
		C227.9,185.3,239.6,197,239.6,211.4z"/>
</g>
<path class="st3" d="M155.4,319.9c-3.8-4.7-7.2-9.2-10.2-13.4c-17.6,11.7-29.1,31.7-29.1,54.4c0,3.2,0.2,6.4,0.7,9.5
	c22.8,1.4,44.9-3.6,64.3-13.7C174,344.7,165.5,332.5,155.4,319.9z"/>
<path class="st3" d="M142.9,177.4c4.7-13.4,9.3-28.8,12.5-47.2c4.1-23.2,11.8-43.6,21-61.1c-6.7-20-19.6-37.1-36.5-49
	c-21.2,15.3-35.7,37.7-41.4,62.3c-5.7,24.8-20.8,46.3-42.1,60.1c-13.2,8.6-24.8,19.7-34,32.8C39.2,189,60.6,197.3,84,197.3
	C106.1,197.3,126.6,189.9,142.9,177.4z"/>
</svg>
