<?xml version="1.0" encoding="utf-8"?>
<!-- Generator: Adobe Illustrator 21.0.2, SVG Export Plug-In . SVG Version: 6.00 Build 0)  -->
<svg version="1.1" id="Capa_1" xmlns="http://www.w3.org/2000/svg" xmlns:xlink="http://www.w3.org/1999/xlink" x="0px" y="0px"
	 viewBox="0 0 469.3 512" style="enable-background:new 0 0 469.3 512;" xml:space="preserve">
<style type="text/css">
	.st0{fill:#F4A32C;}
	.st1{fill:#E89528;}
	.st2{fill:#F7E7A1;}
	.st3{fill:#F4D44E;}
</style>
<path class="st0" d="M444.4,508.9L254.8,368.8l-50.9,111.5c-3.1,6.8-10.3,10.4-17.6,8.8c-7.3-1.6-12.3-7.9-12.3-15.3V355.6
	L53.3,434.3c-6.3,4.1-14.5,3.2-19.8-2.2c-5.3-5.4-6-13.6-1.7-19.8l83.4-121l-66.2,1.7c-7.6,0.2-14.2-5.1-15.7-12.6
	c-1.5-7.5,2.5-14.9,9.6-17.7l59.9-23.5L7.3,179.2c-6.3-4-9-11.9-6.3-18.9c2.7-7,10-11.1,17.4-9.8L129,170.2l-22.6-44.1
	c-3.4-6.6-1.8-14.5,3.9-19.2c5.7-4.7,13.8-4.8,19.6-0.3l39.2,30.5l-4.7-120.8c-0.3-7.6,4.9-14.3,12.3-15.9
	c7.4-1.6,14.9,2.3,17.8,9.3l49.9,120.3l31.4-42.3c4.5-6.1,12.4-8,19.2-4.8c6.8,3.2,10.3,10.6,8.5,17.9l-11.1,45.4l130.7-71.5
	c6.6-3.6,14.9-2,19.7,3.9c4.8,5.9,4.7,14.3-0.2,20L345.9,212l87.8,4.2c16.5,0.8,20.7,23.5,5.5,30l-104.4,45l131.9,196.3
	c4.3,6.3,3.3,14.8-2.2,20.1C459,512.9,450.5,513.5,444.4,508.9z"/>
<path class="st1" d="M176.7,0.4c-7.4,1.6-12.6,8.3-12.3,15.9l4.7,120.8l-39.2-30.5c-5.8-4.5-13.9-4.4-19.6,0.3
	c-5.7,4.7-7.3,12.6-3.9,19.2l22.6,44.1L18.4,150.5c-7.4-1.3-14.7,2.8-17.4,9.8c-2.7,7,0,14.9,6.3,18.9l95.6,59.9L43,262.7
	c-7.1,2.8-11.1,10.2-9.6,17.7c1.5,7.5,8.1,12.7,15.7,12.6l66.2-1.7l-83.4,121c-4.3,6.2-3.6,14.4,1.7,19.8c5.3,5.4,13.4,6.3,19.8,2.2
	L174,355.6v0.2l37.2-51.6l40.7-140.8c-0.8-19.9-7.5-33.5-7.5-33.5L194.5,9.7C191.6,2.6,184.1-1.3,176.7,0.4z"/>
<path class="st2" d="M259.8,339.8l150.4,111.2L305.7,295.3c-5.5-8.1-2.2-19.2,6.8-23.1l73.7-31.8l-63.4-3
	c-13-0.6-19.6-15.9-11.2-25.8l73.1-85.9l-101,55.3c-5.4,3-12.1,2.5-17.1-1.3c-4.9-3.8-7.1-10.1-5.7-16.2l4.3-17.4l-11,14.8
	c-7.2,9.7-22.4,7.9-27-3.3l-34.2-82.4l3.3,84c0.2,6.1-3.1,11.8-8.5,14.5c-5.4,2.8-12,2.2-16.8-1.6l-19.1-14.9l10.4,20.2
	c5.9,11.5-3.9,24.8-16.7,22.6l-77.5-13.8l66.8,41.9c5,3.2,7.8,8.8,7.3,14.7c-0.6,5.9-4.3,11-9.9,13.1l-23.1,9.1l26.4-0.7
	c5.9-0.1,11.3,3,14.2,8.2c2.8,5.2,2.5,11.5-0.9,16.3l-64.5,93.6l91.7-59.8c4.8-3.1,11-3.4,16-0.7c5.1,2.7,8.2,8,8.2,13.8v88.7
	l35.9-78.7c2-4.3,5.7-7.5,10.3-8.7C251.2,336,256,336.9,259.8,339.8z"/>
<path class="st3" d="M84.4,382.5l91.7-59.8c4.8-3.1,11-3.4,16-0.7c1.7,0.9,3.2,2.1,4.4,3.5l14.7-21.3c3-4.3,3.3-9.8,0.8-14.4
	c-2.5-4.6-7.3-7.3-12.5-7.2l-23.3,0.6l20.3-8c4.9-1.9,8.2-6.3,8.7-11.5c0.5-5.2-2-10.2-6.4-13l-58.8-36.9l68.2,12.2
	c11.2,2,19.9-9.7,14.7-19.9l-9.1-17.8l16.8,13.1c4.2,3.3,10,3.8,14.8,1.4c4.8-2.4,7.7-7.5,7.5-12.8l-1-26.6
	c-7.8,6.7-20.4,4.2-24.6-5.9l-34.2-82.4l3.3,84c0.2,6.1-3.1,11.8-8.5,14.5c-5.4,2.8-12,2.2-16.8-1.6l-19.1-14.9l10.4,20.2
	c5.9,11.5-3.9,24.8-16.7,22.6l-77.5-13.8l66.8,41.9c5,3.2,7.8,8.8,7.3,14.7c-0.6,5.9-4.3,11-9.9,13.1l-23.1,9.1l26.4-0.7
	c5.9-0.1,11.3,3,14.2,8.2c2.8,5.2,2.5,11.5-0.9,16.3L84.4,382.5z"/>
</svg>
