<?xml version="1.0" encoding="utf-8"?>
<!-- Generator: Adobe Illustrator 21.0.2, SVG Export Plug-In . SVG Version: 6.00 Build 0)  -->
<svg version="1.1" id="Capa_1" xmlns="http://www.w3.org/2000/svg" xmlns:xlink="http://www.w3.org/1999/xlink" x="0px" y="0px"
	 viewBox="0 0 454.3 309.4" style="enable-background:new 0 0 454.3 309.4;" xml:space="preserve">
<g>
	<g>
		<path d="M217.7,134.3c-8.5,0.3-13,7.7-12.3,17c0.7,9.4,5.8,15.6,13.4,15.4c7.7-0.2,12.1-7.1,12.2-16.5
			C231.1,141.6,226.4,134,217.7,134.3z"/>
		<path d="M162,140.4c-8.5,1.6-11.7,9.6-9.5,18.7c2.2,9.2,8.2,14.5,15.7,13.1c7.5-1.4,10.9-8.9,9.5-18.2
			C176.4,145.5,170.6,138.8,162,140.4z"/>
		<path d="M115.7,172.7c-1.3,0.5-2.6,0.9-3.8,1.4c1.6,4.2,3.2,8.4,4.7,12.7c1.1-0.3,2.4-0.7,4.3-1.4c4.9-1.7,8.7-4.9,7.2-9.7
			C126.6,171.1,121.4,170.7,115.7,172.7z"/>
		<path d="M454.3,181.4l-57.7-36.7l48.9-28.6l-51.3-13l6.9-46L339,86.3l-20.2-48l-35,45.6L246.2,0l-28.6,80.1l-53.7-47.2L140,10
			l10.8,44.5l1.6,44.9L140,72.4l-9.2,15.1L50.9,57.2l23.8,60L2.2,132.9l76.2,35.4l-46.5,38.8l47,5.9l-27.9,50.9l70.4-38.2l32.6,83.7
			l14.1-32.7l0.7-46.7l14.2,29.4l9.3-18.2l26.1,59.2l9-53.9l43.9,52.5l19.8-63.7l15.9,8.6l5.6-16.1L333,258l21.7,11.7l9.3-43.5
			l51.6,31l-38.3-52.9L454.3,181.4z M137.7,183.8c-2.7,3.7-8,7-17.3,10.4c-5.2,1.9-9.2,3.2-11.6,3.8c-6-14.6-12-29.1-18.1-43.7
			c2.9-1.8,9.3-4.8,15.4-7c7.5-2.7,12.3-3.5,16.9-2.8c4.3,0.5,8,2.9,9.1,7.1c1.2,4.2-0.4,8.7-5.6,12.5c0,0,0,0.1,0,0.2
			c6.4-0.5,11.8,2.3,13.5,8.3C141.2,176.7,140,180.6,137.7,183.8z M169.2,180.8c-14.1,2.8-25.2-5.1-29-18.4
			c-3.9-13.8,3.7-27.3,20.5-30.6c17.5-3.3,28.2,7,29.5,20.1C191.8,167.7,183.2,178.1,169.2,180.8z M218.5,175.3
			c-14.4,0.5-24-9.1-25.7-22.7c-1.7-14.3,8-26.4,25-26.9c17.6-0.5,26.6,11.3,25.9,24.5C242.8,166,232.7,174.9,218.5,175.3z
			 M289.3,180.3c1-6.1,1.9-12.1,2.8-18.2c0.9-5.7,2-12.6,3.3-19.5c-0.1,0-0.1,0-0.2,0c-2.9,5.7-6.3,12-9.3,17.2
			c-3.2,5.8-6.2,11.6-9.2,17.5c-2.9-0.5-5.7-0.9-8.6-1.2c-1-6.4-2-12.8-3.2-19.1c-1.1-5.8-2.2-12.8-2.9-19.2c-0.1,0-0.1,0-0.2,0
			c-0.9,6.4-1.9,13.8-2.8,19.7c-0.9,6.1-1.7,12.1-2.5,18.1c-3.4-0.3-6.8-0.5-10.3-0.7c1.9-16,4-31.9,6.3-47.8
			c5.7,0.4,11.3,0.9,17,1.5c1.2,5.5,2.4,11.1,3.5,16.6c0.9,5.7,1.8,11.9,2.1,17.7c0.1,0,0.1,0,0.2,0c2.2-5.3,5-11.3,7.6-16.3
			c2.8-4.9,5.6-9.9,8.5-14.8c5.5,1,11,2.1,16.5,3.3c-2.5,15.9-5.2,31.7-8,47.5C296.4,181.8,292.8,181,289.3,180.3z M310.6,186.2
			c-3.6-1-5.6-4.3-4.7-8c1-3.7,4.4-5.8,8.3-4.7c3.9,1.1,5.8,4.5,4.7,8.2C317.8,185.3,314.5,187.2,310.6,186.2z M326.5,190.9
			c-3.6-1.2-5.4-4.6-4.3-8.3c1.1-3.7,4.7-5.5,8.6-4.2c3.9,1.3,5.5,4.8,4.2,8.5C333.7,190.5,330.3,192.2,326.5,190.9z M350.3,192.9
			c-1.4,3.4-4.8,5-8.6,3.5c-3.7-1.4-5.3-4.9-4-8.5c1.3-3.5,4.9-5.1,8.7-3.6C350.3,185.8,351.7,189.4,350.3,192.9z M351.9,182.6
			c-2.8-1.1-5.5-2.2-8.3-3.2c3.2-10.3,6.4-20.6,9.5-31c4.2,1.6,8.5,3.2,12.7,5C361.1,163.1,356.5,172.9,351.9,182.6z"/>
		<path d="M120.5,156.6c-1.1-3.5-4.8-4.3-10.2-2.4c-2.6,1-4.1,1.6-5,2.2c1.3,3.5,2.6,7,3.9,10.5c1.3-0.5,2.5-0.9,3.8-1.4
			C119,163.3,121.6,160,120.5,156.6z"/>
	</g>
</g>
</svg>
