<svg width="275" height="173" viewBox="0 0 275 173" fill="none" xmlns="http://www.w3.org/2000/svg">
<path d="M39.95 19H7.05C3.15781 19 0 22.1494 0 26.0312V86.9688C0 90.8506 3.15781 94 7.05 94H39.95C43.8422 94 47 90.8506 47 86.9688V26.0312C47 22.1494 43.8422 19 39.95 19ZM23.5 89.3125C20.9003 89.3125 18.8 87.2178 18.8 84.625C18.8 82.0322 20.9003 79.9375 23.5 79.9375C26.0997 79.9375 28.2 82.0322 28.2 84.625C28.2 87.2178 26.0997 89.3125 23.5 89.3125ZM39.95 73.4922C39.95 74.459 39.1569 75.25 38.1875 75.25H8.8125C7.84312 75.25 7.05 74.459 7.05 73.4922V27.7891C7.05 26.8223 7.84312 26.0312 8.8125 26.0312H38.1875C39.1569 26.0312 39.95 26.8223 39.95 27.7891V73.4922Z" fill="white"/>
<path d="M191.3 151.063H135.231C135.06 155.589 131.829 158.375 127.66 158.375H113.6C109.278 158.375 105.964 154.383 106.022 151.063H50.7C48.665 151.063 47 152.708 47 154.719V158.375C47 166.419 53.66 173 61.8 173H180.2C188.34 173 195 166.419 195 158.375V154.719C195 152.708 193.335 151.063 191.3 151.063ZM180.2 66.9688C180.2 60.936 175.205 56 169.1 56H72.9C66.795 56 61.8 60.936 61.8 66.9688V143.75H180.2V66.9688ZM165.4 129.125H76.6V70.625H165.4V129.125Z" fill="white"/>
<path d="M265.7 0.0044011L198.204 0.0366487C193.123 0.0390765 189.002 4.16366 189.004 9.24502L189.043 89.0128C189.045 94.0941 193.17 98.2148 198.251 98.2123L265.747 98.1801C270.828 98.1777 274.949 94.0531 274.946 88.9717L274.908 9.20397C274.906 4.12262 270.781 0.00197337 265.7 0.0044011ZM231.996 92.0602C228.602 92.0619 225.859 89.3212 225.857 85.9272C225.855 82.5332 228.596 79.7899 231.99 79.7883C235.384 79.7867 238.127 82.5274 238.129 85.9213C238.131 89.3153 235.39 92.0586 231.996 92.0602ZM265.734 71.3352C265.734 72.6007 264.699 73.6367 263.434 73.6373L200.54 73.6673C199.275 73.6679 198.239 72.633 198.238 71.3674L198.209 11.5416C198.209 10.2761 199.244 9.24012 200.509 9.23952L263.403 9.20947C264.669 9.20887 265.705 10.2438 265.705 11.5094L265.734 71.3352Z" fill="white"/>
<path d="M249.033 36.6442C249.328 36.4103 249.766 36.6291 249.766 36.999V52.4337C249.766 54.4338 248.143 56.0566 246.143 56.0566H214.745C212.745 56.0566 211.122 54.4338 211.122 52.4337V37.0065C211.122 36.6291 211.552 36.4178 211.854 36.6518C213.545 37.9651 215.786 39.6331 223.485 45.2258C225.077 46.3881 227.764 48.8335 230.444 48.8184C233.138 48.8411 235.878 46.3428 237.41 45.2258C245.109 39.6331 247.343 37.9575 249.033 36.6442ZM230.444 46.3957C232.195 46.4259 234.716 44.1918 235.984 43.271C245.999 36.0027 246.762 35.3687 249.071 33.5573C249.509 33.2177 249.766 32.6893 249.766 32.1308V30.6968C249.766 28.6967 248.143 27.0739 246.143 27.0739H214.745C212.745 27.0739 211.122 28.6967 211.122 30.6968V32.1308C211.122 32.6893 211.379 33.2101 211.816 33.5573C214.126 35.3612 214.888 36.0027 224.904 43.271C226.172 44.1918 228.693 46.4259 230.444 46.3957Z" fill="white"/>
<circle cx="247.622" cy="26.5" r="4" fill="#FF0000" stroke="white"/>
<path d="M31.6573 50.889C31.7944 50.7801 31.9983 50.882 31.9983 51.0543V58.243C31.9983 59.1746 31.2425 59.9304 30.311 59.9304H15.6873C14.7558 59.9304 14 59.1746 14 58.243V51.0578C14 50.882 14.2004 50.7836 14.341 50.8926C15.1284 51.5042 16.1725 52.2811 19.7581 54.8859C20.4998 55.4273 21.7512 56.5662 22.9992 56.5592C24.2541 56.5698 25.5302 55.4062 26.2438 54.8859C29.8294 52.2811 30.8699 51.5007 31.6573 50.889ZM22.9992 55.4308C23.8147 55.4449 24.9888 54.4043 25.5794 53.9755C30.2442 50.5902 30.5992 50.295 31.6749 49.4513C31.8788 49.2931 31.9983 49.047 31.9983 48.7869V48.119C31.9983 47.1874 31.2425 46.4316 30.311 46.4316H15.6873C14.7558 46.4316 14 47.1874 14 48.119V48.7869C14 49.047 14.1195 49.2896 14.3234 49.4513C15.3991 50.2914 15.7541 50.5902 20.4189 53.9755C21.0095 54.4043 22.1836 55.4449 22.9992 55.4308Z" fill="white"/>
<circle cx="31.5" cy="46.5" r="2" fill="#FF0000" stroke="white"/>
<path d="M140.166 94.3969C140.502 94.1305 141 94.3797 141 94.8008V112.375C141 114.652 139.152 116.5 136.875 116.5H101.125C98.8477 116.5 97 114.652 97 112.375V94.8094C97 94.3797 97.4898 94.1391 97.8336 94.4055C99.7586 95.9008 102.311 97.8 111.077 104.168C112.89 105.491 115.949 108.276 119 108.259C122.068 108.284 125.187 105.44 126.932 104.168C135.698 97.8 138.241 95.8922 140.166 94.3969ZM119 105.5C120.994 105.534 123.864 102.991 125.308 101.942C136.712 93.6664 137.58 92.9446 140.209 90.8821C140.708 90.4953 141 89.8938 141 89.2578V87.625C141 85.3477 139.152 83.5 136.875 83.5H101.125C98.8477 83.5 97 85.3477 97 87.625V89.2578C97 89.8938 97.2922 90.4867 97.7906 90.8821C100.42 92.936 101.288 93.6664 112.692 101.942C114.136 102.991 117.006 105.534 119 105.5Z" fill="white"/>
<circle cx="141" cy="83" r="4.5" fill="#FF0000" stroke="white"/>
</svg>
