<svg width="148" height="230" viewBox="0 0 148 230" fill="none" xmlns="http://www.w3.org/2000/svg">
<path d="M39.95 12H7.05C3.15781 12 0 15.1494 0 19.0312V79.9688C0 83.8506 3.15781 87 7.05 87H39.95C43.8422 87 47 83.8506 47 79.9688V19.0312C47 15.1494 43.8422 12 39.95 12ZM23.5 82.3125C20.9003 82.3125 18.8 80.2178 18.8 77.625C18.8 75.0322 20.9003 72.9375 23.5 72.9375C26.0997 72.9375 28.2 75.0322 28.2 77.625C28.2 80.2178 26.0997 82.3125 23.5 82.3125ZM39.95 66.4922C39.95 67.459 39.1569 68.25 38.1875 68.25H8.8125C7.84312 68.25 7.05 67.459 7.05 66.4922V20.7891C7.05 19.8223 7.84312 19.0312 8.8125 19.0312H38.1875C39.1569 19.0312 39.95 19.8223 39.95 20.7891V66.4922Z" fill="white"/>
<path d="M144.3 208.062H88.2311C88.06 212.589 84.8294 215.375 80.66 215.375H66.6C62.2779 215.375 58.9641 211.383 59.0219 208.062H3.7C1.665 208.062 0 209.708 0 211.719V215.375C0 223.419 6.66 230 14.8 230H133.2C141.34 230 148 223.419 148 215.375V211.719C148 209.708 146.335 208.062 144.3 208.062ZM133.2 123.969C133.2 117.936 128.205 113 122.1 113H25.9C19.795 113 14.8 117.936 14.8 123.969V200.75H133.2V123.969ZM118.4 186.125H29.6V127.625H118.4V186.125Z" fill="white"/>
<path d="M137.578 0.00437059L70.082 0.0366182C65.0007 0.039046 60.88 4.16363 60.8824 9.24499L60.9206 89.0127C60.923 94.0941 65.0476 98.2147 70.1289 98.2123L137.625 98.1801C142.706 98.1776 146.827 94.0531 146.824 88.9717L146.786 9.20394C146.784 4.12259 142.659 0.00194285 137.578 0.00437059ZM103.874 92.0602C100.48 92.0618 97.7366 89.3211 97.735 85.9272C97.7334 82.5332 100.474 79.7899 103.868 79.7882C107.262 79.7866 110.005 82.5273 110.007 85.9213C110.009 89.3153 107.268 92.0586 103.874 92.0602ZM137.612 71.3351C137.612 72.6007 136.578 73.6366 135.312 73.6372L72.4182 73.6673C71.1526 73.6679 70.1167 72.6329 70.1161 71.3674L70.0875 11.5416C70.0869 10.276 71.1219 9.24009 72.3874 9.23949L135.281 9.20944C136.547 9.20884 137.583 10.2438 137.583 11.5093L137.612 71.3351Z" fill="white"/>
<path d="M120.911 36.6442C121.206 36.4102 121.643 36.6291 121.643 36.9989V52.4336C121.643 54.4337 120.021 56.0565 118.021 56.0565H86.6228C84.6227 56.0565 83 54.4337 83 52.4336V37.0064C83 36.6291 83.4302 36.4177 83.7321 36.6517C85.4228 37.965 87.6644 39.633 95.3629 45.2257C96.9554 46.388 99.6424 48.8335 102.322 48.8184C105.016 48.841 107.756 46.3428 109.288 45.2257C116.987 39.633 119.221 37.9574 120.911 36.6442ZM102.322 46.3956C104.073 46.4258 106.594 44.1917 107.862 43.2709C117.877 36.0026 118.64 35.3686 120.949 33.5572C121.387 33.2176 121.643 32.6892 121.643 32.1307V30.6967C121.643 28.6966 120.021 27.0739 118.021 27.0739H86.6228C84.6227 27.0739 83 28.6966 83 30.6967V32.1307C83 32.6892 83.2566 33.21 83.6944 33.5572C86.0039 35.3611 86.7662 36.0026 96.7818 43.2709C98.0498 44.1917 100.571 46.4258 102.322 46.3956Z" fill="white"/>
<circle cx="119.5" cy="26.5" r="4" fill="#FF0000" stroke="white"/>
<path d="M31.6573 43.889C31.7944 43.7801 31.9983 43.882 31.9983 44.0543V51.243C31.9983 52.1746 31.2425 52.9304 30.311 52.9304H15.6873C14.7558 52.9304 14 52.1746 14 51.243V44.0578C14 43.882 14.2004 43.7836 14.341 43.8926C15.1284 44.5042 16.1725 45.2811 19.7581 47.8859C20.4998 48.4273 21.7512 49.5662 22.9992 49.5592C24.2541 49.5698 25.5302 48.4062 26.2438 47.8859C29.8294 45.2811 30.8699 44.5007 31.6573 43.889ZM22.9992 48.4308C23.8147 48.4449 24.9888 47.4043 25.5794 46.9755C30.2442 43.5902 30.5992 43.295 31.6749 42.4513C31.8788 42.2931 31.9983 42.047 31.9983 41.7869V41.119C31.9983 40.1874 31.2425 39.4316 30.311 39.4316H15.6873C14.7558 39.4316 14 40.1874 14 41.119V41.7869C14 42.047 14.1195 42.2896 14.3234 42.4513C15.3991 43.2914 15.7541 43.5902 20.4189 46.9755C21.0095 47.4043 22.1836 48.4449 22.9992 48.4308Z" fill="white"/>
<circle cx="31.5" cy="39.5" r="2" fill="#FF0000" stroke="white"/>
<path d="M93.1664 151.397C93.5016 151.13 94 151.38 94 151.801V169.375C94 171.652 92.1523 173.5 89.875 173.5H54.125C51.8477 173.5 50 171.652 50 169.375V151.809C50 151.38 50.4898 151.139 50.8336 151.405C52.7586 152.901 55.3109 154.8 64.0766 161.168C65.8898 162.491 68.9492 165.276 72 165.259C75.068 165.284 78.1875 162.44 79.932 161.168C88.6977 154.8 91.2414 152.892 93.1664 151.397ZM72 162.5C73.9937 162.534 76.8641 159.991 78.3078 158.942C89.7117 150.666 90.5797 149.945 93.2094 147.882C93.7078 147.495 94 146.894 94 146.258V144.625C94 142.348 92.1523 140.5 89.875 140.5H54.125C51.8477 140.5 50 142.348 50 144.625V146.258C50 146.894 50.2922 147.487 50.7906 147.882C53.4203 149.936 54.2883 150.666 65.6922 158.942C67.1359 159.991 70.0063 162.534 72 162.5Z" fill="white"/>
<circle cx="94" cy="140" r="4.5" fill="#FF0000" stroke="white"/>
</svg>
