<svg width="162" height="86" viewBox="0 0 162 86" fill="none" xmlns="http://www.w3.org/2000/svg">
<path fill-rule="evenodd" clip-rule="evenodd" d="M42.3983 61.5392L155.401 43.0396L53.9681 76.5845C53.3252 76.7971 52.6193 76.5577 52.2383 75.9979L42.3983 61.5392Z" fill="url(#paint0_linear)"/>
<path d="M155.401 43.0396L42.3983 61.5392M155.401 43.0396L32.4811 32.2899M155.401 43.0396L37.6175 30.9419M155.401 43.0396L53.0668 19.3648M155.401 43.0396L53.9681 76.5845M42.3983 61.5392L52.2383 75.9979M42.3983 61.5392L17.4394 65.6252M8.08434 59.1289L31.2096 32.7998M8.08434 59.1289C7.42887 59.8752 7.65588 61.0396 8.54368 61.4851M8.08434 59.1289L7.64299 59.6314C7.21075 60.1235 7.36045 60.8914 7.94589 61.1851L8.54368 61.4851M31.2096 32.7998C31.5281 32.4372 32.0003 32.2478 32.4811 32.2899M31.2096 32.7998L31.3822 32.6034C31.5922 32.3642 31.9035 32.2394 32.2206 32.2671L32.4811 32.2899M37.6175 30.9419C36.1528 30.7915 35.7403 28.8521 37.017 28.1185M37.6175 30.9419L36.0243 30.7783C35.0584 30.6791 34.7864 29.4002 35.6283 28.9164L37.017 28.1185M37.017 28.1185L51.9695 19.5273M51.9695 19.5273C52.3016 19.3365 52.6936 19.2784 53.0668 19.3648M51.9695 19.5273L52.1455 19.4262C52.3645 19.3004 52.623 19.2621 52.8691 19.319L53.0668 19.3648M53.9681 76.5845C53.3252 76.7971 52.6193 76.5577 52.2383 75.9979M53.9681 76.5845L53.5982 76.7068C53.1742 76.847 52.7087 76.6892 52.4575 76.32L52.2383 75.9979M17.4394 65.6252C17.1239 65.6768 16.8002 65.6274 16.5144 65.4841M17.4394 65.6252L17.2741 65.6522C17.0661 65.6863 16.8526 65.6537 16.6641 65.5592L16.5144 65.4841M16.5144 65.4841L8.54368 61.4851" stroke="white" stroke-width="2"/>
<defs>
<linearGradient id="paint0_linear" x1="74.4984" y1="15.2593" x2="84.5945" y2="71.2226" gradientUnits="userSpaceOnUse">
<stop offset="0.625" stop-color="white" stop-opacity="0"/>
<stop offset="1" stop-color="white"/>
</linearGradient>
</defs>
</svg>
