<svg width="170" height="156" viewBox="0 0 170 156" fill="none" xmlns="http://www.w3.org/2000/svg">
<rect width="20" height="107" rx="4" transform="matrix(-1 0 0 1 162.5 33)" fill="white"/>
<rect width="20" height="56" rx="4" transform="matrix(-1 0 0 1 127.5 84)" fill="white" fill-opacity="0.9"/>
<rect width="20" height="80" rx="4" transform="matrix(-1 0 0 1 92.5 60)" fill="white"/>
<rect width="20" height="27" rx="4" transform="matrix(-1 0 0 1 57.5 113)" fill="white" fill-opacity="0.87"/>
<rect width="157" height="7" rx="2" transform="matrix(-1 0 0 1 162.5 149)" fill="white" fill-opacity="0.5"/>
<circle r="3.5" transform="matrix(-1 0 0 1 153 13.5)" fill="white"/>
<circle r="3.5" transform="matrix(-1 0 0 1 118 63.5)" fill="white"/>
<circle r="3.5" transform="matrix(-1 0 0 1 83 36.5)" fill="white"/>
<circle r="3.5" transform="matrix(-1 0 0 1 48 90.5)" fill="white"/>
<path d="M0 99H32.446C32.8085 99 33.1642 98.9015 33.475 98.715L47.6065 90.2361C47.8655 90.0807 48.0859 89.8687 48.2512 89.616L81.8059 38.3253C82.448 37.3438 83.7929 37.123 84.7152 37.8476L116.326 62.6847C117.233 63.3974 118.554 63.197 119.208 62.2471L153.295 12.7967C153.431 12.6005 153.6 12.43 153.795 12.2933L168.5 2" stroke="white" stroke-opacity="0.5" stroke-width="3"/>
</svg>
