<svg width="23" height="23" viewBox="0 0 23 23" fill="none" xmlns="http://www.w3.org/2000/svg">
<path d="M11.5 0C17.8528 0 23 5.14718 23 11.5C23 17.8528 17.8528 23 11.5 23C5.14718 23 0 17.8528 0 11.5C0 5.14718 5.14718 0 11.5 0ZM4.82258 12.7984C4.82258 13.1044 5.07298 13.3548 5.37903 13.3548H9.64516V17.621C9.64516 17.927 9.89556 18.1774 10.2016 18.1774H12.7984C13.1044 18.1774 13.3548 17.927 13.3548 17.621V13.3548H17.621C17.927 13.3548 18.1774 13.1044 18.1774 12.7984V10.2016C18.1774 9.89557 17.927 9.64516 17.621 9.64516H13.3548V5.37903C13.3548 5.07298 13.1044 4.82258 12.7984 4.82258H10.2016C9.89556 4.82258 9.64516 5.07298 9.64516 5.37903V9.64516H5.37903C5.07298 9.64516 4.82258 9.89557 4.82258 10.2016V12.7984Z" fill="black"/>
</svg>
