<svg width="19" height="22" viewBox="0 0 19 22" fill="none" xmlns="http://www.w3.org/2000/svg">
<path d="M9.49999 22C8.00204 22 6.78698 20.7689 6.78698 19.25H12.213C12.213 20.7689 10.9979 22 9.49999 22ZM0.365154 15.5671C1.18453 14.6751 2.71767 13.3332 2.71767 8.9375C2.71767 5.59883 5.02821 2.92617 8.14369 2.27047V1.375C8.14369 0.615742 8.75101 0 9.49999 0C10.249 0 10.8563 0.615742 10.8563 1.375V2.27047C13.9718 2.92617 16.2823 5.59883 16.2823 8.9375C16.2823 13.3332 17.8154 14.6751 18.6348 15.5671C18.8893 15.8443 19.0021 16.1756 19 16.5C18.9953 17.2047 18.4495 17.875 17.6386 17.875H1.36138C0.550489 17.875 0.00424004 17.2047 0 16.5C-0.00212097 16.1756 0.110691 15.8439 0.365154 15.5671Z" fill="black"/>
</svg>
