<svg width="27" height="21" viewBox="0 0 27 21" fill="none" xmlns="http://www.w3.org/2000/svg">
<path d="M26.6263 11.429L17.6259 20.6149C16.8223 21.4351 15.4293 20.861 15.4293 19.6854V14.4363H8.14326C7.43073 14.4363 6.85748 13.8512 6.85748 13.124V7.87486C6.85748 7.14763 7.43073 6.56257 8.14326 6.56257H15.4293V1.31344C15.4293 0.143327 16.8169 -0.436264 17.6259 0.383912L26.6263 9.56989C27.1246 10.0839 27.1246 10.915 26.6263 11.429ZM10.2862 20.3415V18.1544C10.2862 17.7935 9.99692 17.4983 9.64334 17.4983H5.14311C4.19485 17.4983 3.42874 16.7164 3.42874 15.7485V5.25029C3.42874 4.28248 4.19485 3.50058 5.14311 3.50058H9.64334C9.99692 3.50058 10.2862 3.20532 10.2862 2.84444V0.657304C10.2862 0.296426 9.99692 0.00116293 9.64334 0.00116293H5.14311C2.30369 0.00116293 0 2.35233 0 5.25029V15.7485C0 18.6465 2.30369 20.9977 5.14311 20.9977H9.64334C9.99692 20.9977 10.2862 20.7024 10.2862 20.3415Z" fill="black"/>
</svg>
