<svg width="22" height="21" viewBox="0 0 22 21" fill="none" xmlns="http://www.w3.org/2000/svg">
<path d="M20.8733 7.03383L14.8654 6.16031L12.1802 0.730508C11.6991 -0.237341 10.305 -0.249644 9.81981 0.730508L7.13459 6.16031L1.12675 7.03383C0.0493653 7.18967 -0.38241 8.51431 0.398897 9.27301L4.74543 13.4971L3.7174 19.4641C3.53235 20.5427 4.67141 21.3506 5.62543 20.8462L11 18.0288L16.3746 20.8462C17.3286 21.3465 18.4677 20.5427 18.2826 19.4641L17.2546 13.4971L21.6011 9.27301C22.3824 8.51431 21.9506 7.18967 20.8733 7.03383ZM15.1368 12.8081L16.1114 18.484L11 15.806L5.88861 18.484L6.86318 12.8081L2.72637 8.78908L8.44225 7.96067L11 2.79334L13.5578 7.96067L19.2736 8.78908L15.1368 12.8081Z" fill="white"/>
</svg>
