<svg width="88" height="88" viewBox="0 0 88 88" fill="none" xmlns="http://www.w3.org/2000/svg">
<path d="M86.625 44C86.625 67.5412 67.5412 86.625 44 86.625C20.4588 86.625 1.375 67.5412 1.375 44C1.375 20.4588 20.4588 1.375 44 1.375C67.5412 1.375 86.625 20.4588 86.625 44ZM78.375 44L78.3745 43.9515L73.8947 47.8601L63.1218 37.8055L65.9498 23.3069L71.8456 23.8349C67.5678 17.9541 61.5325 13.5071 54.5363 11.2638L56.8825 16.7533L44 23.8906L31.1175 16.7535L33.4637 11.264C26.4803 13.5032 20.439 17.9448 16.1544 23.8351L22.0952 23.3069L24.8782 37.8055L14.1054 47.8601L9.62569 43.9515L9.62517 44C9.62517 51.3932 11.945 58.4292 16.2375 64.2797L17.5617 58.4537L32.1948 60.2492L38.434 73.6256L33.2946 76.6825C40.2043 78.9379 47.7819 78.9424 54.7054 76.6825L49.566 73.6256L55.8052 60.2492L70.4383 58.4537L71.7625 64.2797C76.0552 58.4292 78.375 51.3932 78.375 44ZM35.7325 55.9575L30.5944 40.2633L44 30.5477L57.4056 40.2633L52.3143 55.9575H35.7325Z" fill="white"/>
</svg>
