<svg width="28" height="21" viewBox="0 0 28 21" fill="none" xmlns="http://www.w3.org/2000/svg">
<path d="M27.4695 6.93438C27.6828 6.76484 28 6.92344 28 7.19141V18.375C28 19.8242 26.8242 21 25.375 21H2.625C1.17578 21 0 19.8242 0 18.375V7.19688C0 6.92344 0.311719 6.77031 0.530469 6.93984C1.75547 7.89141 3.37969 9.1 8.95781 13.1523C10.1117 13.9945 12.0586 15.7664 14 15.7555C15.9523 15.7719 17.9375 13.9617 19.0477 13.1523C24.6258 9.1 26.2445 7.88594 27.4695 6.93438ZM14 14C15.2688 14.0219 17.0953 12.4031 18.0141 11.7359C25.2711 6.46953 25.8234 6.01016 27.4969 4.69766C27.8141 4.45156 28 4.06875 28 3.66406V2.625C28 1.17578 26.8242 0 25.375 0H2.625C1.17578 0 0 1.17578 0 2.625V3.66406C0 4.06875 0.185937 4.44609 0.503125 4.69766C2.17656 6.00469 2.72891 6.46953 9.98594 11.7359C10.9047 12.4031 12.7312 14.0219 14 14Z" fill="white"/>
</svg>
