<svg width="90" height="90" viewBox="0 0 90 90" fill="none" xmlns="http://www.w3.org/2000/svg">
<circle cx="45" cy="45" r="45" fill="#C4C4C4"/>
<path d="M45.4787 45C52.2781 45 57.7887 39.4281 57.7887 32.5532C57.7887 25.6783 52.2781 20.1064 45.4787 20.1064C38.6793 20.1064 33.1687 25.6783 33.1687 32.5532C33.1687 39.4281 38.6793 45 45.4787 45ZM54.0957 48.1117H52.4897C50.3546 49.1036 47.9792 49.6676 45.4787 49.6676C42.9782 49.6676 40.6124 49.1036 38.4678 48.1117H36.8617C29.7257 48.1117 23.9362 53.9656 23.9362 61.1809V65.2261C23.9362 67.8029 26.0039 69.8936 28.5524 69.8936H62.405C64.9536 69.8936 67.0213 67.8029 67.0213 65.2261V61.1809C67.0213 53.9656 61.2317 48.1117 54.0957 48.1117Z" fill="#323232"/>
</svg>
