<svg width="16" height="19" viewBox="0 0 16 19" fill="none" xmlns="http://www.w3.org/2000/svg">
<path d="M8 9.49998C10.525 9.49998 12.5714 7.43975 12.5714 4.89771C12.5714 2.35568 10.525 0.295441 8 0.295441C5.475 0.295441 3.42857 2.35568 3.42857 4.89771C3.42857 7.43975 5.475 9.49998 8 9.49998ZM11.2 10.6506H10.6036C9.81071 11.0173 8.92857 11.2258 8 11.2258C7.07143 11.2258 6.19286 11.0173 5.39643 10.6506H4.8C2.15 10.6506 0 12.8151 0 15.4829V16.9787C0 17.9315 0.767857 18.7045 1.71429 18.7045H14.2857C15.2321 18.7045 16 17.9315 16 16.9787V15.4829C16 12.8151 13.85 10.6506 11.2 10.6506Z" fill="white"/>
</svg>
